<svg xmlns="http://www.w3.org/2000/svg" viewBox="0 0 400 400"><defs><style>.cls-1{fill:#fff;}</style></defs><g id="Layer_2" data-name="Layer 2"><g id="Layer_1-2" data-name="Layer 1"><path class="cls-1" d="M154.06,200.67c-11.24-11-21.37-20.77-31.32-30.72Q66.66,113.87,10.68,57.67C-3.34,43.6-3.54,22.9,10.16,9.5,23.63-3.68,44.05-3.07,58,10.85Q127.23,80,196.51,149c1.11,1.1,2.29,2.13,4.12,3.83,6.36-6.52,12.53-13,18.83-19.28Q280.93,72,342.42,10.51C356-3.07,376.82-3.56,389.87,9.45c13.52,13.48,13.53,34.11-.12,47.81Q320.9,126.38,252,195.41a60.91,60.91,0,0,1-5.46,4.27c14.68,14.58,28.58,28.31,42.41,42.11Q339.23,292,389.49,342.37c13.61,13.62,14,34.35,1.05,47.43-13.41,13.54-33.9,13.7-47.81-.13q-69.33-69-138.41-138.28c-1.24-1.24-2.24-2.73-4.12-5-10.16,10.43-19.61,20.36-29.29,30Q114.25,333,57.47,389.55c-13.77,13.71-34.54,13.79-47.82.4-13.09-13.21-12.9-33.67.79-47.4q69.08-69.29,138.33-138.36C150,203,151.72,202.21,154.06,200.67Z"/></g></g></svg>