<svg xmlns="http://www.w3.org/2000/svg" xmlns:xlink="http://www.w3.org/1999/xlink" viewBox="0 0 124.89 139.8"><defs><style>.cls-1{fill:none;}.cls-2{fill:#1a4051;}.cls-3{clip-path:url(#clip-path);}.cls-4{fill:#3498db;}.cls-5{fill:#3497da;}.cls-6{fill:#3497d9;}.cls-7{fill:#3396d8;}.cls-8{fill:#3395d7;}.cls-9{fill:#3395d6;}.cls-10{fill:#3394d5;}.cls-11{fill:#3394d4;}.cls-12{fill:#3293d3;}.cls-13{fill:#3292d2;}.cls-14{fill:#3292d1;}.cls-15{fill:#3291d0;}.cls-16{fill:#3290cf;}.cls-17{fill:#3290ce;}.cls-18{fill:#318fcd;}.cls-19{fill:#318ecc;}.cls-20{fill:#318ecb;}.cls-21{fill:#318dca;}.cls-22{fill:#318cc9;}.cls-23{fill:#308cc8;}.cls-24{fill:#308bc7;}.cls-25{fill:#308bc6;}.cls-26{fill:#308ac5;}.cls-27{fill:#3089c4;}.cls-28{fill:#2f89c3;}.cls-29{fill:#2f88c2;}.cls-30{fill:#2f87c1;}.cls-31{fill:#2f87c0;}.cls-32{fill:#2f86bf;}.cls-33{fill:#2e85be;}.cls-34{fill:#2e85bd;}.cls-35{fill:#2e84bc;}.cls-36{fill:#2e83bb;}.cls-37{fill:#2e83ba;}.cls-38{fill:#2e82b9;}.cls-39{fill:#2d82b8;}.cls-40{fill:#2d81b7;}.cls-41{fill:#2d80b6;}.cls-42{fill:#2d80b5;}.cls-43{fill:#2d7fb4;}.cls-44{fill:#2c7eb3;}.cls-45{fill:#2c7eb2;}.cls-46{fill:#2c7db1;}.cls-47{fill:#2c7cb0;}.cls-48{fill:#2c7caf;}.cls-49{fill:#2b7bae;}.cls-50{fill:#2b7aad;}.cls-51{fill:#2b7aac;}.cls-52{fill:#2b79ab;}.cls-53{fill:#2b79aa;}.cls-54{fill:#2b78a9;}.cls-55{fill:#2a77a8;}.cls-56{fill:#2a77a7;}.cls-57{fill:#2a76a6;}.cls-58{fill:#2a75a5;}.cls-59{fill:#2a75a4;}.cls-60{fill:#2974a3;}.cls-61{fill:#2973a2;}.cls-62{fill:#2973a1;}.cls-63{fill:#2972a0;}.cls-64{fill:#29719f;}.cls-65{fill:#28719e;}.cls-66{fill:#28709d;}.cls-67{fill:#28709c;}.cls-68{fill:#286f9b;}.cls-69{fill:#286e9a;}.cls-70{fill:#276e99;}.cls-71{fill:#276d98;}.cls-72{fill:#276c97;}.cls-73{fill:#276c95;}.cls-74{fill:#276b94;}.cls-75{fill:#276a93;}.cls-76{fill:#266a92;}.cls-77{fill:#266991;}.cls-78{fill:#266890;}.cls-79{fill:#26688f;}.cls-80{fill:#26678e;}.cls-81{fill:#25678d;}.cls-82{fill:#25668c;}.cls-83{fill:#25658b;}.cls-84{fill:#25658a;}.cls-85{fill:#256489;}.cls-86{fill:#246388;}.cls-87{fill:#246387;}.cls-88{fill:#246286;}.cls-89{fill:#246185;}.cls-90{fill:#246184;}.cls-91{fill:#236083;}.cls-92{fill:#235f82;}.cls-93{fill:#235f81;}.cls-94{fill:#235e80;}.cls-95{fill:#235e7f;}.cls-96{fill:#235d7e;}.cls-97{fill:#225c7d;}.cls-98{fill:#225c7c;}.cls-99{fill:#225b7b;}.cls-100{fill:#225a7a;}.cls-101{fill:#225a79;}.cls-102{fill:#215978;}.cls-103{fill:#215877;}.cls-104{fill:#215876;}.cls-105{fill:#215775;}.cls-106{fill:#215674;}.cls-107{fill:#205673;}.cls-108{fill:#205572;}.cls-109{fill:#205571;}.cls-110{fill:#205470;}.cls-111{fill:#20536f;}.cls-112{fill:#20536e;}.cls-113{fill:#1f526d;}.cls-114{fill:#1f516c;}.cls-115{fill:#1f516b;}.cls-116{fill:#1f506a;}.cls-117{fill:#1f4f69;}.cls-118{fill:#1e4f68;}.cls-119{fill:#1e4e67;}.cls-120{fill:#1e4d66;}.cls-121{fill:#1e4d65;}.cls-122{fill:#1e4c64;}.cls-123{fill:#1d4c63;}.cls-124{fill:#1d4b62;}.cls-125{fill:#1d4a61;}.cls-126{fill:#1d4a60;}.cls-127{fill:#1d495f;}.cls-128{fill:#1c485e;}.cls-129{fill:#1c485d;}.cls-130{fill:#1c475c;}.cls-131{fill:#1c465b;}.cls-132{fill:#1c465a;}.cls-133{fill:#1c4559;}.cls-134{fill:#1b4458;}.cls-135{fill:#1b4457;}.cls-136{fill:#1b4356;}.cls-137{fill:#1b4355;}.cls-138{fill:#1b4254;}.cls-139{fill:#1a4153;}.cls-140{fill:#1a4152;}</style><clipPath id="clip-path"><rect class="cls-1" x="3.73" width="5" height="118"/></clipPath></defs><g id="Layer_2" data-name="Layer 2"><g id="Layer_1-2" data-name="Layer 1"><g id="Layer_1-2-2" data-name="Layer 1-2"><path class="cls-2" d="M121.73,118H3.73V0H93.5a28.23,28.23,0,0,1,28.23,28.23h0Z"/><g class="cls-3"><rect class="cls-4" x="3.73" y="117.3" width="5" height="0.7"/><rect class="cls-5" x="3.73" y="116.59" width="5" height="0.7"/><rect class="cls-6" x="3.73" y="115.89" width="5" height="0.7"/><rect class="cls-7" x="3.73" y="115.18" width="5" height="0.7"/><rect class="cls-8" x="3.73" y="114.48" width="5" height="0.7"/><rect class="cls-9" x="3.73" y="113.77" width="5" height="0.7"/><rect class="cls-10" x="3.73" y="113.07" width="5" height="0.7"/><rect class="cls-11" x="3.73" y="112.36" width="5" height="0.7"/><rect class="cls-12" x="3.73" y="111.66" width="5" height="0.7"/><rect class="cls-13" x="3.73" y="110.95" width="5" height="0.7"/><rect class="cls-14" x="3.73" y="110.25" width="5" height="0.7"/><rect class="cls-15" x="3.73" y="109.54" width="5" height="0.7"/><rect class="cls-16" x="3.73" y="108.84" width="5" height="0.7"/><rect class="cls-17" x="3.73" y="108.14" width="5" height="0.7"/><rect class="cls-18" x="3.73" y="107.43" width="5" height="0.7"/><rect class="cls-19" x="3.73" y="106.73" width="5" height="0.7"/><rect class="cls-20" x="3.73" y="106.02" width="5" height="0.7"/><rect class="cls-21" x="3.73" y="105.32" width="5" height="0.7"/><rect class="cls-22" x="3.73" y="104.61" width="5" height="0.7"/><rect class="cls-23" x="3.73" y="103.91" width="5" height="0.7"/><rect class="cls-24" x="3.73" y="103.2" width="5" height="0.7"/><rect class="cls-25" x="3.73" y="102.5" width="5" height="0.7"/><rect class="cls-26" x="3.73" y="101.79" width="5" height="0.7"/><rect class="cls-27" x="3.73" y="101.09" width="5" height="0.7"/><rect class="cls-28" x="3.73" y="100.39" width="5" height="0.7"/><rect class="cls-29" x="3.73" y="99.68" width="5" height="0.7"/><rect class="cls-30" x="3.73" y="98.98" width="5" height="0.7"/><rect class="cls-31" x="3.73" y="98.27" width="5" height="0.7"/><rect class="cls-32" x="3.73" y="97.57" width="5" height="0.7"/><rect class="cls-33" x="3.73" y="96.86" width="5" height="0.7"/><rect class="cls-34" x="3.73" y="96.16" width="5" height="0.7"/><rect class="cls-35" x="3.73" y="95.45" width="5" height="0.7"/><rect class="cls-36" x="3.73" y="94.75" width="5" height="0.7"/><rect class="cls-37" x="3.73" y="94.04" width="5" height="0.7"/><rect class="cls-38" x="3.73" y="93.34" width="5" height="0.7"/><rect class="cls-39" x="3.73" y="92.63" width="5" height="0.7"/><rect class="cls-40" x="3.73" y="91.93" width="5" height="0.7"/><rect class="cls-41" x="3.73" y="91.23" width="5" height="0.7"/><rect class="cls-42" x="3.73" y="90.52" width="5" height="0.7"/><rect class="cls-43" x="3.73" y="89.82" width="5" height="0.7"/><rect class="cls-44" x="3.73" y="89.11" width="5" height="0.7"/><rect class="cls-45" x="3.73" y="88.41" width="5" height="0.7"/><rect class="cls-46" x="3.73" y="87.7" width="5" height="0.7"/><rect class="cls-47" x="3.73" y="87" width="5" height="0.7"/><rect class="cls-48" x="3.73" y="86.29" width="5" height="0.7"/><rect class="cls-49" x="3.73" y="85.59" width="5" height="0.7"/><rect class="cls-50" x="3.73" y="84.88" width="5" height="0.7"/><rect class="cls-51" x="3.73" y="84.18" width="5" height="0.7"/><rect class="cls-52" x="3.73" y="83.47" width="5" height="0.7"/><rect class="cls-53" x="3.73" y="82.77" width="5" height="0.7"/><rect class="cls-54" x="3.73" y="82.07" width="5" height="0.7"/><rect class="cls-55" x="3.73" y="81.36" width="5" height="0.7"/><rect class="cls-56" x="3.73" y="80.66" width="5" height="0.7"/><rect class="cls-57" x="3.73" y="79.95" width="5" height="0.7"/><rect class="cls-58" x="3.73" y="79.25" width="5" height="0.7"/><rect class="cls-59" x="3.73" y="78.54" width="5" height="0.7"/><rect class="cls-60" x="3.73" y="77.84" width="5" height="0.7"/><rect class="cls-61" x="3.73" y="77.13" width="5" height="0.7"/><rect class="cls-62" x="3.73" y="76.43" width="5" height="0.7"/><rect class="cls-63" x="3.73" y="75.72" width="5" height="0.7"/><rect class="cls-64" x="3.73" y="75.02" width="5" height="0.7"/><rect class="cls-65" x="3.73" y="74.32" width="5" height="0.7"/><rect class="cls-66" x="3.73" y="73.61" width="5" height="0.7"/><rect class="cls-67" x="3.73" y="72.91" width="5" height="0.7"/><rect class="cls-68" x="3.73" y="72.2" width="5" height="0.7"/><rect class="cls-69" x="3.73" y="71.5" width="5" height="0.7"/><rect class="cls-70" x="3.73" y="70.79" width="5" height="0.7"/><rect class="cls-71" x="3.73" y="70.09" width="5" height="0.7"/><rect class="cls-72" x="3.73" y="69.38" width="5" height="0.7"/><rect class="cls-73" x="3.73" y="68.68" width="5" height="0.7"/><rect class="cls-74" x="3.73" y="67.97" width="5" height="0.7"/><rect class="cls-75" x="3.73" y="67.27" width="5" height="0.7"/><rect class="cls-76" x="3.73" y="66.56" width="5" height="0.7"/><rect class="cls-77" x="3.73" y="65.86" width="5" height="0.7"/><rect class="cls-78" x="3.73" y="65.16" width="5" height="0.7"/><rect class="cls-79" x="3.73" y="64.45" width="5" height="0.7"/><rect class="cls-80" x="3.73" y="63.75" width="5" height="0.7"/><rect class="cls-81" x="3.73" y="63.04" width="5" height="0.7"/><rect class="cls-82" x="3.73" y="62.34" width="5" height="0.7"/><rect class="cls-83" x="3.73" y="61.63" width="5" height="0.7"/><rect class="cls-84" x="3.73" y="60.93" width="5" height="0.7"/><rect class="cls-85" x="3.73" y="60.22" width="5" height="0.7"/><rect class="cls-86" x="3.73" y="59.52" width="5" height="0.7"/><rect class="cls-87" x="3.73" y="58.81" width="5" height="0.7"/><rect class="cls-88" x="3.73" y="58.11" width="5" height="0.7"/><rect class="cls-89" x="3.73" y="57.4" width="5" height="0.7"/><rect class="cls-90" x="3.73" y="56.7" width="5" height="0.7"/><rect class="cls-91" x="3.73" y="56" width="5" height="0.7"/><rect class="cls-92" x="3.73" y="55.29" width="5" height="0.7"/><rect class="cls-93" x="3.73" y="54.59" width="5" height="0.7"/><rect class="cls-94" x="3.73" y="53.88" width="5" height="0.7"/><rect class="cls-95" x="3.73" y="53.18" width="5" height="0.7"/><rect class="cls-96" x="3.73" y="52.47" width="5" height="0.7"/><rect class="cls-97" x="3.73" y="51.77" width="5" height="0.7"/><rect class="cls-98" x="3.73" y="51.06" width="5" height="0.7"/><rect class="cls-99" x="3.73" y="50.36" width="5" height="0.7"/><rect class="cls-100" x="3.73" y="49.65" width="5" height="0.7"/><rect class="cls-101" x="3.73" y="48.95" width="5" height="0.7"/><rect class="cls-102" x="3.73" y="48.25" width="5" height="0.7"/><rect class="cls-103" x="3.73" y="47.54" width="5" height="0.7"/><rect class="cls-104" x="3.73" y="46.84" width="5" height="0.7"/><rect class="cls-105" x="3.73" y="46.13" width="5" height="0.7"/><rect class="cls-106" x="3.73" y="45.43" width="5" height="0.7"/><rect class="cls-107" x="3.73" y="44.72" width="5" height="0.7"/><rect class="cls-108" x="3.73" y="44.02" width="5" height="0.7"/><rect class="cls-109" x="3.73" y="43.31" width="5" height="0.7"/><rect class="cls-110" x="3.73" y="42.61" width="5" height="0.7"/><rect class="cls-111" x="3.73" y="41.9" width="5" height="0.7"/><rect class="cls-112" x="3.73" y="41.2" width="5" height="0.7"/><rect class="cls-113" x="3.73" y="40.49" width="5" height="0.7"/><rect class="cls-114" x="3.73" y="39.79" width="5" height="0.7"/><rect class="cls-115" x="3.73" y="39.09" width="5" height="0.7"/><rect class="cls-116" x="3.73" y="38.38" width="5" height="0.7"/><rect class="cls-117" x="3.73" y="37.68" width="5" height="0.7"/><rect class="cls-118" x="3.73" y="36.97" width="5" height="0.7"/><rect class="cls-119" x="3.73" y="36.27" width="5" height="0.7"/><rect class="cls-120" x="3.73" y="35.56" width="5" height="0.7"/><rect class="cls-121" x="3.73" y="34.86" width="5" height="0.7"/><rect class="cls-122" x="3.73" y="34.15" width="5" height="0.7"/><rect class="cls-123" x="3.73" y="33.45" width="5" height="0.7"/><rect class="cls-124" x="3.73" y="32.74" width="5" height="0.7"/><rect class="cls-125" x="3.73" y="32.04" width="5" height="0.7"/><rect class="cls-126" x="3.73" y="31.33" width="5" height="0.7"/><rect class="cls-127" x="3.73" y="30.63" width="5" height="0.7"/><rect class="cls-128" x="3.73" y="29.93" width="5" height="0.7"/><rect class="cls-129" x="3.73" y="29.22" width="5" height="0.7"/><rect class="cls-130" x="3.73" y="28.52" width="5" height="0.7"/><rect class="cls-131" x="3.73" y="27.81" width="5" height="0.7"/><rect class="cls-132" x="3.73" y="27.11" width="5" height="0.7"/><rect class="cls-133" x="3.73" y="26.4" width="5" height="0.7"/><rect class="cls-134" x="3.73" y="25.7" width="5" height="0.7"/><rect class="cls-135" x="3.73" y="24.99" width="5" height="0.7"/><rect class="cls-136" x="3.73" y="24.29" width="5" height="0.7"/><rect class="cls-137" x="3.73" y="23.58" width="5" height="0.7"/><rect class="cls-138" x="3.73" y="22.88" width="5" height="0.7"/><rect class="cls-139" x="3.73" y="22.18" width="5" height="0.7"/><rect class="cls-140" x="3.73" y="21.47" width="5" height="0.7"/><rect class="cls-2" x="3.73" y="20.77" width="5" height="0.7"/><rect class="cls-2" x="3.73" width="5" height="20.77"/></g><path class="cls-4" d="M4.33,132.51H2.77v6H4.33v1.21H0v-1.21H1.56v-6H0v-1.2H4.33Z"/><path class="cls-4" d="M4.93,139.69v-8.4h.94L10,137.21V131.3h1.2v8.39h-1l-4.06-5.86v5.86Z"/><path class="cls-4" d="M18.54,134.31a2.62,2.62,0,0,0-2.7-1.85,3.07,3.07,0,0,0,0,6.13,2.75,2.75,0,0,0,2.64-1.7H15.37v-1.21h4.52a6,6,0,0,1-.23,1.45h0a4.21,4.21,0,0,1-3.82,2.63,4.25,4.25,0,0,1,0-8.5,3.86,3.86,0,0,1,4,3.06Z"/><path class="cls-4" d="M21.84,138.48h3.94v1.21H20.63v-8.38h1.21Z"/><path class="cls-4" d="M27.48,138.48h3.9v1.21H26.26v-8.38h5.1v1.21H27.48v2.36h3.8v1.23h-3.8Zm-.41-7.58,1.36-1.2h1l1.32,1.2h-1.3l-.57-.46-.52.46Z"/><path class="cls-4" d="M36.5,133.47a1.61,1.61,0,0,0-1.71-1.07,2,2,0,0,0-1.53.64,1.05,1.05,0,0,0-.2.78c.06.86,1,1,1.91,1.05,1.15.15,2.57.45,2.9,1.79a3.55,3.55,0,0,1,.06.55c0,1.62-1.61,2.56-3.12,2.56-1.3,0-2.87-.77-3-2.27v-.23l1.22,0v.13c.08.78,1,1.19,1.81,1.19s1.88-.51,1.88-1.37a1.68,1.68,0,0,0,0-.29c-.15-.63-1-.74-1.85-.83-1.31-.13-2.84-.42-3-2.17h0a2.25,2.25,0,0,1,.45-1.59,3.26,3.26,0,0,1,2.55-1.12,2.67,2.67,0,0,1,2.85,2.21Z"/><path class="cls-4" d="M46.74,132.51H45.18v6h1.56v1.21H42.41v-1.21H44v-6H42.41v-1.2h4.33Z"/><path class="cls-4" d="M47.28,139.69v-8.4h.93l4.09,5.91V131.3h1.2v8.39h-1l-4-5.86v5.86Z"/><path class="cls-4" d="M55.45,139.73v-7.3H52.91V131.3h6.28v1.13H56.66v7.3Z"/><path class="cls-4" d="M60.92,138.48h3.9v1.21H59.7v-8.38h5.11v1.21H60.92v2.36h3.8v1.23h-3.8Z"/><path class="cls-4" d="M67,135.44h1.41a1.46,1.46,0,1,0,0-2.92H66.57v7.17H65.38V131.3h3.05A2.6,2.6,0,0,1,71.17,134,2.53,2.53,0,0,1,69,136.54l2.65,3.15H70.08L67,136Z"/><path class="cls-4" d="M73.23,139.69H72V131.3h1l2.77,4.08,2.77-4.08h1v8.39h-1.2v-5.91L76.11,137h-.68l-2.2-3.26Z"/><path class="cls-4" d="M81.65,138.48h3.89v1.21H80.42v-8.38h5.11v1.21H81.65v2.36h3.8v1.23h-3.8Z"/><path class="cls-4" d="M89.11,131.31a4.19,4.19,0,0,1,0,8.38h-3v-8.38Zm0,7.17a3,3,0,0,0,0-6h-1.8v6Z"/><path class="cls-4" d="M97.72,132.51H96.17v6h1.55v1.21H93.39v-1.21H95v-6H93.39v-1.2h4.33Z"/><path class="cls-4" d="M102.88,137.22h-3c-.32.77-.74,1.78-1,2.47H97.56l3.37-8.5h.89l3.37,8.5h-1.3Zm-2.55-1.14h2.09l-1-3Zm.44-5.2.87-1.28h1.63l-1.36,1.28Z"/><path class="cls-4" d="M107.23,135.44h1.41a1.46,1.46,0,1,0,0-2.92h-1.85v7.17h-1.2V131.3h3a2.6,2.6,0,0,1,2.74,2.67,2.53,2.53,0,0,1-2.17,2.57l2.65,3.15h-1.57L107.23,136Z"/><path class="cls-4" d="M116.4,132.51h-1.56v6h1.56v1.21h-4.33v-1.21h1.55v-6h-1.55v-1.2h4.33Z"/><path class="cls-4" d="M117.58,132.46a4.25,4.25,0,0,1,6.06,0,4.31,4.31,0,0,1,0,6.07,4.25,4.25,0,0,1-6.06,0,4.33,4.33,0,0,1,0-6.07Zm5.2.87a3.07,3.07,0,0,0-2.17-.92,3,3,0,0,0-2.15.92,3.08,3.08,0,0,0,2.15,5.25,3.07,3.07,0,0,0,3.06-3.08A3.07,3.07,0,0,0,122.78,133.33Z"/><path class="cls-4" d="M51.69,80.75H36.79c-5.4,0-9-3.63-9-9q0-19.65,0-39.32c0-5.35,3.62-8.95,9-9,4.85,0,9.7.16,14.53-.05,5.44-.24,9.64,2.81,10.17,9,.22,2.49.3,2.48,2.83,2.48q12.26,0,24.49,0a8.52,8.52,0,0,1,8.68,6.46,10.21,10.21,0,0,1,.29,2.46q0,21,0,42a8.59,8.59,0,0,1-8.85,8.85q-13.75,0-27.5,0c-5.1,0-8.61-3.22-9.08-8.31C52.13,84.47,51.9,82.66,51.69,80.75Zm10.79-41.3c0,.38.06.64.1.91Q63.77,48.52,65,56.67c1,6.9,2,13.81,3.05,20.71a3.57,3.57,0,0,1-.7,2.91c-1.79,2.33-3.54,4.69-5.3,7-.59.78-1.17,1.58-1.94,2.61H88.54c3,0,4.54-1.51,4.54-4.53q0-20.65,0-41.31c0-3.21-1.48-4.66-4.71-4.66H62.48ZM63,76.11c0-.27,0-.37,0-.47Q62,68.41,60.94,61.18q-2.13-14.55-4.27-29.11c-.39-2.73-1.8-4-4.57-4q-7.58,0-15.14,0c-3.08,0-4.6,1.51-4.6,4.57V71.31c0,3.36,1.43,4.79,4.79,4.8H63Zm-6.66,4.7L57,86.28l4.12-5.47Z"/><path class="cls-4" d="M79.09,72.36C77.5,73.67,76,75,74.34,76.24a2.3,2.3,0,0,1-3.39-3,4.48,4.48,0,0,1,.88-.86l4-3.34c-1.36-2.34-2.64-4.5-3.88-6.68-.28-.48-.4-1-.7-1.5a1.73,1.73,0,0,0-.9-.75,2.3,2.3,0,0,1-1.88-2.48,2.23,2.23,0,0,1,2.26-2.12c2,0,3.93,0,6,0,0-.74,0-1.41,0-2.09a2.3,2.3,0,1,1,4.59,0c0,.65,0,1.3,0,2.08,2,0,3.93,0,5.85,0a2.32,2.32,0,0,1,.59,4.6,1.25,1.25,0,0,0-.8.46c-1.51,2.77-3,5.57-4.58,8.59l4.2,3.46a2.23,2.23,0,0,1,.81,2.59,2,2,0,0,1-2.08,1.55,3.27,3.27,0,0,1-1.79-.66C82.05,74.88,80.59,73.61,79.09,72.36Zm3.14-12.23h-6.3l3.15,5.24Z"/><path class="cls-4" d="M42.54,58.38c-.34,1.71-.67,3.33-1,5a2.16,2.16,0,0,1-1.8,1.89A2.27,2.27,0,0,1,37,62.56c1.16-6.13,2.33-12.27,3.58-18.38A5.17,5.17,0,0,1,45.92,40a5.31,5.31,0,0,1,5.14,4.42q1.72,8.9,3.44,17.79a2.33,2.33,0,0,1-1.67,3,2.28,2.28,0,0,1-2.84-2c-.29-1.31-.57-2.63-.78-4-.1-.67-.34-.93-1.05-.91C46.33,58.42,44.5,58.38,42.54,58.38Zm5.58-4.67c-.55-2.84-1.08-5.61-1.66-8.37a.93.93,0,0,0-.71-.56,1,1,0,0,0-.68.6c-.25.93-.41,1.89-.59,2.84l-1,5.49Z"/></g></g></g></svg>