<?xml version="1.0" encoding="utf-8"?>
<!-- Generator: Adobe Illustrator 26.0.3, SVG Export Plug-In . SVG Version: 6.00 Build 0)  -->
<svg version="1.1" id="Layer_1" xmlns="http://www.w3.org/2000/svg" xmlns:xlink="http://www.w3.org/1999/xlink" x="0px" y="0px"
	 viewBox="0 0 118 140.2" style="enable-background:new 0 0 118 140.2;" xml:space="preserve">
<style type="text/css">
	.st0{fill:#1A4051;}
	.st1{clip-path:url(#SVGID_00000085212738146336308660000016298690829052804481_);}
	.st2{fill:#3498DB;}
	.st3{fill:#3497DA;}
	.st4{fill:#3497D9;}
	.st5{fill:#3396D8;}
	.st6{fill:#3395D7;}
	.st7{fill:#3395D6;}
	.st8{fill:#3394D5;}
	.st9{fill:#3394D4;}
	.st10{fill:#3293D3;}
	.st11{fill:#3292D2;}
	.st12{fill:#3292D1;}
	.st13{fill:#3291D0;}
	.st14{fill:#3290CF;}
	.st15{fill:#3290CE;}
	.st16{fill:#318FCD;}
	.st17{fill:#318ECC;}
	.st18{fill:#318ECB;}
	.st19{fill:#318DCA;}
	.st20{fill:#318CC9;}
	.st21{fill:#308CC8;}
	.st22{fill:#308BC7;}
	.st23{fill:#308BC6;}
	.st24{fill:#308AC5;}
	.st25{fill:#3089C4;}
	.st26{fill:#2F89C3;}
	.st27{fill:#2F88C2;}
	.st28{fill:#2F87C1;}
	.st29{fill:#2F87C0;}
	.st30{fill:#2F86BF;}
	.st31{fill:#2E85BE;}
	.st32{fill:#2E85BD;}
	.st33{fill:#2E84BC;}
	.st34{fill:#2E83BB;}
	.st35{fill:#2E83BA;}
	.st36{fill:#2E82B9;}
	.st37{fill:#2D82B8;}
	.st38{fill:#2D81B7;}
	.st39{fill:#2D80B6;}
	.st40{fill:#2D80B5;}
	.st41{fill:#2D7FB4;}
	.st42{fill:#2C7EB3;}
	.st43{fill:#2C7EB2;}
	.st44{fill:#2C7DB1;}
	.st45{fill:#2C7CB0;}
	.st46{fill:#2C7CAF;}
	.st47{fill:#2B7BAE;}
	.st48{fill:#2B7AAD;}
	.st49{fill:#2B7AAC;}
	.st50{fill:#2B79AB;}
	.st51{fill:#2B79AA;}
	.st52{fill:#2B78A9;}
	.st53{fill:#2A77A8;}
	.st54{fill:#2A77A7;}
	.st55{fill:#2A76A6;}
	.st56{fill:#2A75A5;}
	.st57{fill:#2A75A4;}
	.st58{fill:#2974A3;}
	.st59{fill:#2973A2;}
	.st60{fill:#2973A1;}
	.st61{fill:#2972A0;}
	.st62{fill:#29719F;}
	.st63{fill:#28719E;}
	.st64{fill:#28709D;}
	.st65{fill:#28709C;}
	.st66{fill:#286F9B;}
	.st67{fill:#286E9A;}
	.st68{fill:#276E99;}
	.st69{fill:#276D98;}
	.st70{fill:#276C97;}
	.st71{fill:#276C95;}
	.st72{fill:#276B94;}
	.st73{fill:#276A93;}
	.st74{fill:#266A92;}
	.st75{fill:#266991;}
	.st76{fill:#266890;}
	.st77{fill:#26688F;}
	.st78{fill:#26678E;}
	.st79{fill:#25678D;}
	.st80{fill:#25668C;}
	.st81{fill:#25658B;}
	.st82{fill:#25658A;}
	.st83{fill:#256489;}
	.st84{fill:#246388;}
	.st85{fill:#246387;}
	.st86{fill:#246286;}
	.st87{fill:#246185;}
	.st88{fill:#246184;}
	.st89{fill:#236083;}
	.st90{fill:#235F82;}
	.st91{fill:#235F81;}
	.st92{fill:#235E80;}
	.st93{fill:#235E7F;}
	.st94{fill:#235D7E;}
	.st95{fill:#225C7D;}
	.st96{fill:#225C7C;}
	.st97{fill:#225B7B;}
	.st98{fill:#225A7A;}
	.st99{fill:#225A79;}
	.st100{fill:#215978;}
	.st101{fill:#215877;}
	.st102{fill:#215876;}
	.st103{fill:#215775;}
	.st104{fill:#215674;}
	.st105{fill:#205673;}
	.st106{fill:#205572;}
	.st107{fill:#205571;}
	.st108{fill:#205470;}
	.st109{fill:#20536F;}
	.st110{fill:#20536E;}
	.st111{fill:#1F526D;}
	.st112{fill:#1F516C;}
	.st113{fill:#1F516B;}
	.st114{fill:#1F506A;}
	.st115{fill:#1F4F69;}
	.st116{fill:#1E4F68;}
	.st117{fill:#1E4E67;}
	.st118{fill:#1E4D66;}
	.st119{fill:#1E4D65;}
	.st120{fill:#1E4C64;}
	.st121{fill:#1D4C63;}
	.st122{fill:#1D4B62;}
	.st123{fill:#1D4A61;}
	.st124{fill:#1D4A60;}
	.st125{fill:#1D495F;}
	.st126{fill:#1C485E;}
	.st127{fill:#1C485D;}
	.st128{fill:#1C475C;}
	.st129{fill:#1C465B;}
	.st130{fill:#1C465A;}
	.st131{fill:#1C4559;}
	.st132{fill:#1B4458;}
	.st133{fill:#1B4457;}
	.st134{fill:#1B4356;}
	.st135{fill:#1B4355;}
	.st136{fill:#1B4254;}
	.st137{fill:#1A4153;}
	.st138{fill:#1A4152;}
</style>
<g id="Layer_2_00000113343745794636227190000006572554987002983822_">
	<g id="Layer_1-2">
		<path class="st0" d="M118,118H0V0h89.8C105.4,0,118,12.6,118,28.2c0,0,0,0,0,0V118z"/>
		<g>
			<defs>
				<rect id="SVGID_1_" width="5" height="118"/>
			</defs>
			<clipPath id="SVGID_00000129181776763146295440000004199466148395978894_">
				<use xlink:href="#SVGID_1_"  style="overflow:visible;"/>
			</clipPath>
			<g style="clip-path:url(#SVGID_00000129181776763146295440000004199466148395978894_);">
				<path class="st2" d="M0,118L0,118z"/>
				<rect y="117.3" class="st2" width="5" height="0.7"/>
				<rect y="116.6" class="st3" width="5" height="0.7"/>
				<rect y="115.9" class="st4" width="5" height="0.7"/>
				<rect y="115.2" class="st5" width="5" height="0.7"/>
				<rect y="114.5" class="st6" width="5" height="0.7"/>
				<rect y="113.8" class="st7" width="5" height="0.7"/>
				<rect y="113.1" class="st8" width="5" height="0.7"/>
				<rect y="112.4" class="st9" width="5" height="0.7"/>
				<rect y="111.7" class="st10" width="5" height="0.7"/>
				<rect y="110.9" class="st11" width="5" height="0.7"/>
				<rect y="110.2" class="st12" width="5" height="0.7"/>
				<rect y="109.5" class="st13" width="5" height="0.7"/>
				<rect y="108.8" class="st14" width="5" height="0.7"/>
				<rect y="108.1" class="st15" width="5" height="0.7"/>
				<rect y="107.4" class="st16" width="5" height="0.7"/>
				<rect y="106.7" class="st17" width="5" height="0.7"/>
				<rect y="106" class="st18" width="5" height="0.7"/>
				<rect y="105.3" class="st19" width="5" height="0.7"/>
				<rect y="104.6" class="st20" width="5" height="0.7"/>
				<rect y="103.9" class="st21" width="5" height="0.7"/>
				<rect y="103.2" class="st22" width="5" height="0.7"/>
				<rect y="102.5" class="st23" width="5" height="0.7"/>
				<rect y="101.8" class="st24" width="5" height="0.7"/>
				<rect y="101.1" class="st25" width="5" height="0.7"/>
				<rect y="100.4" class="st26" width="5" height="0.7"/>
				<rect y="99.7" class="st27" width="5" height="0.7"/>
				<rect y="99" class="st28" width="5" height="0.7"/>
				<rect y="98.3" class="st29" width="5" height="0.7"/>
				<rect y="97.6" class="st30" width="5" height="0.7"/>
				<rect y="96.9" class="st31" width="5" height="0.7"/>
				<rect y="96.2" class="st32" width="5" height="0.7"/>
				<rect y="95.4" class="st33" width="5" height="0.7"/>
				<rect y="94.8" class="st34" width="5" height="0.7"/>
				<rect y="94" class="st35" width="5" height="0.7"/>
				<rect y="93.3" class="st36" width="5" height="0.7"/>
				<rect y="92.6" class="st37" width="5" height="0.7"/>
				<rect y="91.9" class="st38" width="5" height="0.7"/>
				<rect y="91.2" class="st39" width="5" height="0.7"/>
				<rect y="90.5" class="st40" width="5" height="0.7"/>
				<rect y="89.8" class="st41" width="5" height="0.7"/>
				<rect y="89.1" class="st42" width="5" height="0.7"/>
				<rect y="88.4" class="st43" width="5" height="0.7"/>
				<rect y="87.7" class="st44" width="5" height="0.7"/>
				<rect y="87" class="st45" width="5" height="0.7"/>
				<rect y="86.3" class="st46" width="5" height="0.7"/>
				<rect y="85.6" class="st47" width="5" height="0.7"/>
				<rect y="84.9" class="st48" width="5" height="0.7"/>
				<rect y="84.2" class="st49" width="5" height="0.7"/>
				<rect y="83.5" class="st50" width="5" height="0.7"/>
				<rect y="82.8" class="st51" width="5" height="0.7"/>
				<rect y="82.1" class="st52" width="5" height="0.7"/>
				<rect y="81.4" class="st53" width="5" height="0.7"/>
				<rect y="80.7" class="st54" width="5" height="0.7"/>
				<rect y="79.9" class="st55" width="5" height="0.7"/>
				<rect y="79.2" class="st56" width="5" height="0.7"/>
				<rect y="78.5" class="st57" width="5" height="0.7"/>
				<rect y="77.8" class="st58" width="5" height="0.7"/>
				<rect y="77.1" class="st59" width="5" height="0.7"/>
				<rect y="76.4" class="st60" width="5" height="0.7"/>
				<rect y="75.7" class="st61" width="5" height="0.7"/>
				<rect y="75" class="st62" width="5" height="0.7"/>
				<rect y="74.3" class="st63" width="5" height="0.7"/>
				<rect y="73.6" class="st64" width="5" height="0.7"/>
				<rect y="72.9" class="st65" width="5" height="0.7"/>
				<rect y="72.2" class="st66" width="5" height="0.7"/>
				<rect y="71.5" class="st67" width="5" height="0.7"/>
				<rect y="70.8" class="st68" width="5" height="0.7"/>
				<rect y="70.1" class="st69" width="5" height="0.7"/>
				<rect y="69.4" class="st70" width="5" height="0.7"/>
				<rect y="68.7" class="st71" width="5" height="0.7"/>
				<rect y="68" class="st72" width="5" height="0.7"/>
				<rect y="67.3" class="st73" width="5" height="0.7"/>
				<rect y="66.6" class="st74" width="5" height="0.7"/>
				<rect y="65.9" class="st75" width="5" height="0.7"/>
				<rect y="65.2" class="st76" width="5" height="0.7"/>
				<rect y="64.4" class="st77" width="5" height="0.7"/>
				<rect y="63.8" class="st78" width="5" height="0.7"/>
				<rect y="63" class="st79" width="5" height="0.7"/>
				<rect y="62.3" class="st80" width="5" height="0.7"/>
				<rect y="61.6" class="st81" width="5" height="0.7"/>
				<rect y="60.9" class="st82" width="5" height="0.7"/>
				<rect y="60.2" class="st83" width="5" height="0.7"/>
				<rect y="59.5" class="st84" width="5" height="0.7"/>
				<rect y="58.8" class="st85" width="5" height="0.7"/>
				<rect y="58.1" class="st86" width="5" height="0.7"/>
				<rect y="57.4" class="st87" width="5" height="0.7"/>
				<rect y="56.7" class="st88" width="5" height="0.7"/>
				<rect y="56" class="st89" width="5" height="0.7"/>
				<rect y="55.3" class="st90" width="5" height="0.7"/>
				<rect y="54.6" class="st91" width="5" height="0.7"/>
				<rect y="53.9" class="st92" width="5" height="0.7"/>
				<rect y="53.2" class="st93" width="5" height="0.7"/>
				<rect y="52.5" class="st94" width="5" height="0.7"/>
				<rect y="51.8" class="st95" width="5" height="0.7"/>
				<rect y="51.1" class="st96" width="5" height="0.7"/>
				<rect y="50.4" class="st97" width="5" height="0.7"/>
				<rect y="49.7" class="st98" width="5" height="0.7"/>
				<rect y="49" class="st99" width="5" height="0.7"/>
				<rect y="48.2" class="st100" width="5" height="0.7"/>
				<rect y="47.5" class="st101" width="5" height="0.7"/>
				<rect y="46.8" class="st102" width="5" height="0.7"/>
				<rect y="46.1" class="st103" width="5" height="0.7"/>
				<rect y="45.4" class="st104" width="5" height="0.7"/>
				<rect y="44.7" class="st105" width="5" height="0.7"/>
				<rect y="44" class="st106" width="5" height="0.7"/>
				<rect y="43.3" class="st107" width="5" height="0.7"/>
				<rect y="42.6" class="st108" width="5" height="0.7"/>
				<rect y="41.9" class="st109" width="5" height="0.7"/>
				<rect y="41.2" class="st110" width="5" height="0.7"/>
				<rect y="40.5" class="st111" width="5" height="0.7"/>
				<rect y="39.8" class="st112" width="5" height="0.7"/>
				<rect y="39.1" class="st113" width="5" height="0.7"/>
				<rect y="38.4" class="st114" width="5" height="0.7"/>
				<rect y="37.7" class="st115" width="5" height="0.7"/>
				<rect y="37" class="st116" width="5" height="0.7"/>
				<rect y="36.3" class="st117" width="5" height="0.7"/>
				<rect y="35.6" class="st118" width="5" height="0.7"/>
				<rect y="34.9" class="st119" width="5" height="0.7"/>
				<rect y="34.2" class="st120" width="5" height="0.7"/>
				<rect y="33.5" class="st121" width="5" height="0.7"/>
				<rect y="32.7" class="st122" width="5" height="0.7"/>
				<rect y="32" class="st123" width="5" height="0.7"/>
				<rect y="31.3" class="st124" width="5" height="0.7"/>
				<rect y="30.6" class="st125" width="5" height="0.7"/>
				<rect y="29.9" class="st126" width="5" height="0.7"/>
				<rect y="29.2" class="st127" width="5" height="0.7"/>
				<rect y="28.5" class="st128" width="5" height="0.7"/>
				<rect y="27.8" class="st129" width="5" height="0.7"/>
				<rect y="27.1" class="st130" width="5" height="0.7"/>
				<rect y="26.4" class="st131" width="5" height="0.7"/>
				<rect y="25.7" class="st132" width="5" height="0.7"/>
				<rect y="25" class="st133" width="5" height="0.7"/>
				<rect y="24.3" class="st134" width="5" height="0.7"/>
				<rect y="23.6" class="st135" width="5" height="0.7"/>
				<rect y="22.9" class="st136" width="5" height="0.7"/>
				<rect y="22.2" class="st137" width="5" height="0.7"/>
				<rect y="21.5" class="st138" width="5" height="0.7"/>
				<rect y="20.8" class="st0" width="5" height="0.7"/>
				<rect class="st0" width="5" height="20.8"/>
			</g>
		</g>
		<g>
			<path class="st2" d="M89.8,67.2c-1.3,0.7-2.7,1.1-4.2,1.2c-2.4,0-4.7,0-7.1,0c-0.5,0-0.7,0.1-0.8,0.6c-0.3,2.1-0.8,4.1-1.1,6.2
				c-0.1,0.5-0.3,0.7-0.8,0.7c-1.5,0-3,0-4.5,0c-0.9,0-0.8,0.1-0.6-0.8c0.5-2.6,1-5.3,1.5-7.9c0.9-4.9,1.8-9.8,2.7-14.7
				c0.2-1,0.4-2,0.5-3c0.1-0.5,0.3-0.6,0.7-0.6c3.9,0,7.8,0,11.7,0c0.6,0,1.3,0.1,1.9,0.2c0.2,0,0.3,0.1,0.5,0.1
				c0.2,0.1,0.5,0.1,0.7,0.2v0h0C86.8,35.8,74.2,26,59.3,26c-18.2,0-33,14.8-33,33c0,2.6,0.3,5.1,0.8,7.4c0.1-0.7,0.2-1.4,0.4-2.1
				c0.9-5,1.9-10,2.8-15.1c0.1-0.4,0.3-0.5,0.6-0.5c4,0,8,0,12,0c3.9,0.1,6.7,2.4,7.5,6.2c0.3,1.3,0.1,2.5-0.2,3.8
				c-0.6,2.6-1.6,5-3.6,6.9c-1.8,1.7-3.9,2.6-6.3,2.7c-2.3,0.1-4.7,0-7,0c-0.5,0-0.7,0.2-0.8,0.6c-0.3,1.9-0.7,3.8-1.1,5.7
				c-0.1,0.8-0.2,1-0.6,1.1C36.7,85.5,47.2,92,59.3,92c15.9,0,29.2-11.2,32.3-26.2C91.1,66.3,90.5,66.8,89.8,67.2z M68.9,68.5
				c-0.8-0.1-1.5,0-2.3,0c-0.8,0-1.5,0-2.3,0c-0.5,0-0.7-0.2-0.6-0.7c0.5-2.5,1-5,1.5-7.5c0.3-1.5,0.6-2.9,0.8-4.4
				c0.2-1.3-0.4-2.2-1.7-2.6c-1.4-0.4-2.7-0.2-4.1-0.2c-1.8,0-1.8,0-2.1,1.7c-0.8,4.4-1.6,8.8-2.4,13.1c-0.1,0.4-0.2,0.7-0.8,0.7
				c-1.6,0-3.1,0-4.7,0c-0.4,0-0.6-0.1-0.5-0.6c0.6-3,1.1-5.9,1.6-8.9c1-5.4,2-10.8,3-16.2c0.3-1.4,0.2-1.4,1.7-1.4h3.7
				c0.8,0,0.8,0,0.7,0.8c-0.4,2-0.7,4-1.1,5.9c-0.1,0.5,0,0.6,0.5,0.6c2.3,0,4.7,0,7,0c1.5,0,3,0.5,4.1,1.6c1.1,1,1.4,2.2,1.2,3.6
				c-0.7,4.6-1.6,9.2-2.5,13.7C69.6,68.3,69.4,68.5,68.9,68.5z"/>
			<path class="st2" d="M83.8,53.1c0.9,0.1,1.9-0.1,2.9,0.1c2.2,0.4,3.2,1.6,3.1,3.7c-0.1,2-0.7,3.8-2.1,5.4
				c-1.3,1.4-2.9,1.9-4.7,1.9c-1.3,0-2.5,0-3.8,0c-0.5,0-0.6-0.2-0.5-0.6c0.5-2.9,1.1-5.8,1.6-8.7c0.1-0.3,0.1-0.6,0.2-0.9
				c0-0.7,0.3-0.9,1-0.9C82.2,53.1,82.9,53.1,83.8,53.1z"/>
			<path class="st2" d="M38.7,53.1c1.1,0,2.3-0.1,3.5,0.2c1.7,0.5,2.5,1.5,2.5,3.2c0,2.2-0.7,4.2-2.1,5.8c-1.3,1.4-3,1.8-4.8,1.9
				c-1.1,0-2.3,0-3.4,0c-0.8,0-0.8-0.1-0.7-0.8c0.4-2.2,0.8-4.3,1.2-6.5c0.2-1.1,0.4-2.2,0.6-3.3c0.1-0.4,0.2-0.6,0.6-0.6
				C36.9,53.1,37.7,53.1,38.7,53.1z"/>
		</g>
		<g>
			<path class="st2" d="M52.5,131.8c1.8,0,2.7,1.4,2.7,2.8s-0.9,2.8-2.7,2.8h-1.8v2.8h-1.2v-8.4H52.5z M52.5,136.2
				c1,0,1.5-0.8,1.5-1.6c0-0.8-0.5-1.6-1.5-1.6h-1.8v3.2H52.5z"/>
			<path class="st2" d="M57,135.4h3.6v-3.5h1.2v8.4h-1.2v-3.6H57v3.6h-1.2v-8.4H57V135.4z"/>
			<path class="st2" d="M65.6,131.8c1.8,0,2.7,1.4,2.7,2.8s-0.9,2.8-2.7,2.8h-1.8v2.8h-1.2v-8.4H65.6z M65.6,136.2
				c1,0,1.5-0.8,1.5-1.6c0-0.8-0.5-1.6-1.5-1.6h-1.8v3.2H65.6z"/>
		</g>
	</g>
</g>
</svg>
