<svg xmlns="http://www.w3.org/2000/svg" xmlns:xlink="http://www.w3.org/1999/xlink" viewBox="0 0 118 139.8"><defs><style>.cls-1{fill:none;}.cls-2{fill:#1a4051;}.cls-3{clip-path:url(#clip-path);}.cls-4{fill:#3498db;}.cls-5{fill:#3497da;}.cls-6{fill:#3497d9;}.cls-7{fill:#3396d8;}.cls-8{fill:#3395d7;}.cls-9{fill:#3395d6;}.cls-10{fill:#3394d5;}.cls-11{fill:#3394d4;}.cls-12{fill:#3293d3;}.cls-13{fill:#3292d2;}.cls-14{fill:#3292d1;}.cls-15{fill:#3291d0;}.cls-16{fill:#3290cf;}.cls-17{fill:#3290ce;}.cls-18{fill:#318fcd;}.cls-19{fill:#318ecc;}.cls-20{fill:#318ecb;}.cls-21{fill:#318dca;}.cls-22{fill:#318cc9;}.cls-23{fill:#308cc8;}.cls-24{fill:#308bc7;}.cls-25{fill:#308bc6;}.cls-26{fill:#308ac5;}.cls-27{fill:#3089c4;}.cls-28{fill:#2f89c3;}.cls-29{fill:#2f88c2;}.cls-30{fill:#2f87c1;}.cls-31{fill:#2f87c0;}.cls-32{fill:#2f86bf;}.cls-33{fill:#2e85be;}.cls-34{fill:#2e85bd;}.cls-35{fill:#2e84bc;}.cls-36{fill:#2e83bb;}.cls-37{fill:#2e83ba;}.cls-38{fill:#2e82b9;}.cls-39{fill:#2d82b8;}.cls-40{fill:#2d81b7;}.cls-41{fill:#2d80b6;}.cls-42{fill:#2d80b5;}.cls-43{fill:#2d7fb4;}.cls-44{fill:#2c7eb3;}.cls-45{fill:#2c7eb2;}.cls-46{fill:#2c7db1;}.cls-47{fill:#2c7cb0;}.cls-48{fill:#2c7caf;}.cls-49{fill:#2b7bae;}.cls-50{fill:#2b7aad;}.cls-51{fill:#2b7aac;}.cls-52{fill:#2b79ab;}.cls-53{fill:#2b79aa;}.cls-54{fill:#2b78a9;}.cls-55{fill:#2a77a8;}.cls-56{fill:#2a77a7;}.cls-57{fill:#2a76a6;}.cls-58{fill:#2a75a5;}.cls-59{fill:#2a75a4;}.cls-60{fill:#2974a3;}.cls-61{fill:#2973a2;}.cls-62{fill:#2973a1;}.cls-63{fill:#2972a0;}.cls-64{fill:#29719f;}.cls-65{fill:#28719e;}.cls-66{fill:#28709d;}.cls-67{fill:#28709c;}.cls-68{fill:#286f9b;}.cls-69{fill:#286e9a;}.cls-70{fill:#276e99;}.cls-71{fill:#276d98;}.cls-72{fill:#276c97;}.cls-73{fill:#276c95;}.cls-74{fill:#276b94;}.cls-75{fill:#276a93;}.cls-76{fill:#266a92;}.cls-77{fill:#266991;}.cls-78{fill:#266890;}.cls-79{fill:#26688f;}.cls-80{fill:#26678e;}.cls-81{fill:#25678d;}.cls-82{fill:#25668c;}.cls-83{fill:#25658b;}.cls-84{fill:#25658a;}.cls-85{fill:#256489;}.cls-86{fill:#246388;}.cls-87{fill:#246387;}.cls-88{fill:#246286;}.cls-89{fill:#246185;}.cls-90{fill:#246184;}.cls-91{fill:#236083;}.cls-92{fill:#235f82;}.cls-93{fill:#235f81;}.cls-94{fill:#235e80;}.cls-95{fill:#235e7f;}.cls-96{fill:#235d7e;}.cls-97{fill:#225c7d;}.cls-98{fill:#225c7c;}.cls-99{fill:#225b7b;}.cls-100{fill:#225a7a;}.cls-101{fill:#225a79;}.cls-102{fill:#215978;}.cls-103{fill:#215877;}.cls-104{fill:#215876;}.cls-105{fill:#215775;}.cls-106{fill:#215674;}.cls-107{fill:#205673;}.cls-108{fill:#205572;}.cls-109{fill:#205571;}.cls-110{fill:#205470;}.cls-111{fill:#20536f;}.cls-112{fill:#20536e;}.cls-113{fill:#1f526d;}.cls-114{fill:#1f516c;}.cls-115{fill:#1f516b;}.cls-116{fill:#1f506a;}.cls-117{fill:#1f4f69;}.cls-118{fill:#1e4f68;}.cls-119{fill:#1e4e67;}.cls-120{fill:#1e4d66;}.cls-121{fill:#1e4d65;}.cls-122{fill:#1e4c64;}.cls-123{fill:#1d4c63;}.cls-124{fill:#1d4b62;}.cls-125{fill:#1d4a61;}.cls-126{fill:#1d4a60;}.cls-127{fill:#1d495f;}.cls-128{fill:#1c485e;}.cls-129{fill:#1c485d;}.cls-130{fill:#1c475c;}.cls-131{fill:#1c465b;}.cls-132{fill:#1c465a;}.cls-133{fill:#1c4559;}.cls-134{fill:#1b4458;}.cls-135{fill:#1b4457;}.cls-136{fill:#1b4356;}.cls-137{fill:#1b4355;}.cls-138{fill:#1b4254;}.cls-139{fill:#1a4153;}.cls-140{fill:#1a4152;}</style><clipPath id="clip-path"><rect class="cls-1" width="5" height="118"/></clipPath></defs><g id="Layer_2" data-name="Layer 2"><g id="Layer_1-2" data-name="Layer 1"><g id="Layer_1-2-2" data-name="Layer 1-2"><path class="cls-2" d="M118,118H0V0H89.77A28.23,28.23,0,0,1,118,28.23h0Z"/><g class="cls-3"><rect class="cls-4" y="117.3" width="5" height="0.7"/><rect class="cls-5" y="116.59" width="5" height="0.7"/><rect class="cls-6" y="115.89" width="5" height="0.7"/><rect class="cls-7" y="115.18" width="5" height="0.7"/><rect class="cls-8" y="114.48" width="5" height="0.7"/><rect class="cls-9" y="113.77" width="5" height="0.7"/><rect class="cls-10" y="113.07" width="5" height="0.7"/><rect class="cls-11" y="112.36" width="5" height="0.7"/><rect class="cls-12" y="111.66" width="5" height="0.7"/><rect class="cls-13" y="110.95" width="5" height="0.7"/><rect class="cls-14" y="110.25" width="5" height="0.7"/><rect class="cls-15" y="109.54" width="5" height="0.7"/><rect class="cls-16" y="108.84" width="5" height="0.7"/><rect class="cls-17" y="108.14" width="5" height="0.7"/><rect class="cls-18" y="107.43" width="5" height="0.7"/><rect class="cls-19" y="106.73" width="5" height="0.7"/><rect class="cls-20" y="106.02" width="5" height="0.7"/><rect class="cls-21" y="105.32" width="5" height="0.7"/><rect class="cls-22" y="104.61" width="5" height="0.7"/><rect class="cls-23" y="103.91" width="5" height="0.7"/><rect class="cls-24" y="103.2" width="5" height="0.7"/><rect class="cls-25" y="102.5" width="5" height="0.7"/><rect class="cls-26" y="101.79" width="5" height="0.7"/><rect class="cls-27" y="101.09" width="5" height="0.7"/><rect class="cls-28" y="100.39" width="5" height="0.7"/><rect class="cls-29" y="99.68" width="5" height="0.7"/><rect class="cls-30" y="98.98" width="5" height="0.7"/><rect class="cls-31" y="98.27" width="5" height="0.7"/><rect class="cls-32" y="97.57" width="5" height="0.7"/><rect class="cls-33" y="96.86" width="5" height="0.7"/><rect class="cls-34" y="96.16" width="5" height="0.7"/><rect class="cls-35" y="95.45" width="5" height="0.7"/><rect class="cls-36" y="94.75" width="5" height="0.7"/><rect class="cls-37" y="94.04" width="5" height="0.7"/><rect class="cls-38" y="93.34" width="5" height="0.7"/><rect class="cls-39" y="92.63" width="5" height="0.7"/><rect class="cls-40" y="91.93" width="5" height="0.7"/><rect class="cls-41" y="91.23" width="5" height="0.7"/><rect class="cls-42" y="90.52" width="5" height="0.7"/><rect class="cls-43" y="89.82" width="5" height="0.7"/><rect class="cls-44" y="89.11" width="5" height="0.7"/><rect class="cls-45" y="88.41" width="5" height="0.7"/><rect class="cls-46" y="87.7" width="5" height="0.7"/><rect class="cls-47" y="87" width="5" height="0.7"/><rect class="cls-48" y="86.29" width="5" height="0.7"/><rect class="cls-49" y="85.59" width="5" height="0.7"/><rect class="cls-50" y="84.88" width="5" height="0.7"/><rect class="cls-51" y="84.18" width="5" height="0.7"/><rect class="cls-52" y="83.47" width="5" height="0.7"/><rect class="cls-53" y="82.77" width="5" height="0.7"/><rect class="cls-54" y="82.07" width="5" height="0.7"/><rect class="cls-55" y="81.36" width="5" height="0.7"/><rect class="cls-56" y="80.66" width="5" height="0.7"/><rect class="cls-57" y="79.95" width="5" height="0.7"/><rect class="cls-58" y="79.25" width="5" height="0.7"/><rect class="cls-59" y="78.54" width="5" height="0.7"/><rect class="cls-60" y="77.84" width="5" height="0.7"/><rect class="cls-61" y="77.13" width="5" height="0.7"/><rect class="cls-62" y="76.43" width="5" height="0.7"/><rect class="cls-63" y="75.72" width="5" height="0.7"/><rect class="cls-64" y="75.02" width="5" height="0.7"/><rect class="cls-65" y="74.32" width="5" height="0.7"/><rect class="cls-66" y="73.61" width="5" height="0.7"/><rect class="cls-67" y="72.91" width="5" height="0.7"/><rect class="cls-68" y="72.2" width="5" height="0.7"/><rect class="cls-69" y="71.5" width="5" height="0.7"/><rect class="cls-70" y="70.79" width="5" height="0.7"/><rect class="cls-71" y="70.09" width="5" height="0.7"/><rect class="cls-72" y="69.38" width="5" height="0.7"/><rect class="cls-73" y="68.68" width="5" height="0.7"/><rect class="cls-74" y="67.97" width="5" height="0.7"/><rect class="cls-75" y="67.27" width="5" height="0.7"/><rect class="cls-76" y="66.56" width="5" height="0.7"/><rect class="cls-77" y="65.86" width="5" height="0.7"/><rect class="cls-78" y="65.16" width="5" height="0.7"/><rect class="cls-79" y="64.45" width="5" height="0.7"/><rect class="cls-80" y="63.75" width="5" height="0.7"/><rect class="cls-81" y="63.04" width="5" height="0.7"/><rect class="cls-82" y="62.34" width="5" height="0.7"/><rect class="cls-83" y="61.63" width="5" height="0.7"/><rect class="cls-84" y="60.93" width="5" height="0.7"/><rect class="cls-85" y="60.22" width="5" height="0.7"/><rect class="cls-86" y="59.52" width="5" height="0.7"/><rect class="cls-87" y="58.81" width="5" height="0.7"/><rect class="cls-88" y="58.11" width="5" height="0.7"/><rect class="cls-89" y="57.4" width="5" height="0.7"/><rect class="cls-90" y="56.7" width="5" height="0.7"/><rect class="cls-91" y="56" width="5" height="0.7"/><rect class="cls-92" y="55.29" width="5" height="0.7"/><rect class="cls-93" y="54.59" width="5" height="0.7"/><rect class="cls-94" y="53.88" width="5" height="0.7"/><rect class="cls-95" y="53.18" width="5" height="0.7"/><rect class="cls-96" y="52.47" width="5" height="0.7"/><rect class="cls-97" y="51.77" width="5" height="0.7"/><rect class="cls-98" y="51.06" width="5" height="0.7"/><rect class="cls-99" y="50.36" width="5" height="0.7"/><rect class="cls-100" y="49.65" width="5" height="0.7"/><rect class="cls-101" y="48.95" width="5" height="0.7"/><rect class="cls-102" y="48.25" width="5" height="0.7"/><rect class="cls-103" y="47.54" width="5" height="0.7"/><rect class="cls-104" y="46.84" width="5" height="0.7"/><rect class="cls-105" y="46.13" width="5" height="0.7"/><rect class="cls-106" y="45.43" width="5" height="0.7"/><rect class="cls-107" y="44.72" width="5" height="0.7"/><rect class="cls-108" y="44.02" width="5" height="0.7"/><rect class="cls-109" y="43.31" width="5" height="0.7"/><rect class="cls-110" y="42.61" width="5" height="0.7"/><rect class="cls-111" y="41.9" width="5" height="0.7"/><rect class="cls-112" y="41.2" width="5" height="0.7"/><rect class="cls-113" y="40.49" width="5" height="0.7"/><rect class="cls-114" y="39.79" width="5" height="0.7"/><rect class="cls-115" y="39.09" width="5" height="0.7"/><rect class="cls-116" y="38.38" width="5" height="0.7"/><rect class="cls-117" y="37.68" width="5" height="0.7"/><rect class="cls-118" y="36.97" width="5" height="0.7"/><rect class="cls-119" y="36.27" width="5" height="0.7"/><rect class="cls-120" y="35.56" width="5" height="0.7"/><rect class="cls-121" y="34.86" width="5" height="0.7"/><rect class="cls-122" y="34.15" width="5" height="0.7"/><rect class="cls-123" y="33.45" width="5" height="0.7"/><rect class="cls-124" y="32.74" width="5" height="0.7"/><rect class="cls-125" y="32.04" width="5" height="0.7"/><rect class="cls-126" y="31.33" width="5" height="0.7"/><rect class="cls-127" y="30.63" width="5" height="0.7"/><rect class="cls-128" y="29.93" width="5" height="0.7"/><rect class="cls-129" y="29.22" width="5" height="0.7"/><rect class="cls-130" y="28.52" width="5" height="0.7"/><rect class="cls-131" y="27.81" width="5" height="0.7"/><rect class="cls-132" y="27.11" width="5" height="0.7"/><rect class="cls-133" y="26.4" width="5" height="0.7"/><rect class="cls-134" y="25.7" width="5" height="0.7"/><rect class="cls-135" y="24.99" width="5" height="0.7"/><rect class="cls-136" y="24.29" width="5" height="0.7"/><rect class="cls-137" y="23.58" width="5" height="0.7"/><rect class="cls-138" y="22.88" width="5" height="0.7"/><rect class="cls-139" y="22.18" width="5" height="0.7"/><rect class="cls-140" y="21.47" width="5" height="0.7"/><rect class="cls-2" y="20.77" width="5" height="0.7"/><rect class="cls-2" width="5" height="20.77"/></g><path class="cls-4" d="M21.5,134.31a2.6,2.6,0,0,0-2.7-1.85,3.07,3.07,0,0,0,0,6.13,2.74,2.74,0,0,0,2.64-1.7h-3.1v-1.21h4.52a6,6,0,0,1-.23,1.45h0a4.22,4.22,0,0,1-3.83,2.63,4.25,4.25,0,0,1,0-8.5,3.87,3.87,0,0,1,4,3.06Z"/><path class="cls-4" d="M24.71,138.48h3.9v1.21H23.49v-8.38H28.6v1.21H24.71v2.36h3.8v1.23h-3.8Z"/><path class="cls-4" d="M30.81,135.44h1.41a1.46,1.46,0,1,0,0-2.92H30.36v7.17h-1.2V131.3h3.06A2.6,2.6,0,0,1,35,134a2.53,2.53,0,0,1-2.18,2.57l2.66,3.15H33.86L30.81,136Z"/><path class="cls-4" d="M36.83,138.48h3.9v1.21H35.61v-8.38h5.1v1.21H36.83v2.36h3.8v1.23h-3.8Z"/><path class="cls-4" d="M41.27,139.69v-8.4h.94l4.08,5.91V131.3h1.2v8.39h-1l-4.05-5.86v5.86Z"/><path class="cls-4" d="M49,132.51a4,4,0,0,1,2.9-1.25,3.93,3.93,0,0,1,3.91,3.1H54.6a2.74,2.74,0,0,0-2.71-1.9,2.87,2.87,0,0,0-2.07.9,3.12,3.12,0,0,0-.86,2.16,3.09,3.09,0,0,0,.86,2.13,2.89,2.89,0,0,0,4.85-1.1h1.19a4,4,0,0,1-6.87,2,4.35,4.35,0,0,1,0-6Z"/><path class="cls-4" d="M60.41,132.51H58.85v6h1.56v1.21H56.08v-1.21h1.56v-6H56.08v-1.2h4.33Z"/><path class="cls-4" d="M65.94,137.22h-3c-.33.77-.74,1.78-1,2.47H60.61l3.37-8.5h.89l3.37,8.5H67Zm-2.56-1.14h2.09l-1-3Z"/><path class="cls-4" d="M69.88,139.69H68.67V131.3h1l2.77,4.08,2.77-4.08h1v8.39H75v-5.91L72.76,137h-.69l-2.19-3.26Z"/><path class="cls-4" d="M78.29,138.48h3.9v1.21H77.07v-8.38h5.1v1.21H78.29v2.36h3.8v1.23h-3.8Z"/><path class="cls-4" d="M82.73,139.69v-8.4h.93l4.09,5.91V131.3H89v8.39H88l-4-5.86v5.86Z"/><path class="cls-4" d="M90.9,139.73v-7.3H88.36V131.3h6.28v1.13H92.11v7.3Z"/><path class="cls-4" d="M95.48,132.46a4.25,4.25,0,0,1,6.06,0,4.31,4.31,0,0,1,0,6.07,4.25,4.25,0,0,1-6.06,0,4.33,4.33,0,0,1,0-6.07Zm5.2.87a3.09,3.09,0,0,0-2.17-.92,3,3,0,0,0-2.15.92,3.08,3.08,0,0,0,2.15,5.25,3.13,3.13,0,0,0,2.17-.91,3.09,3.09,0,0,0,0-4.34Z"/><path class="cls-4" d="M60.37,24a2.25,2.25,0,0,1,1.12,1.82c.38,2.36.82,4.71,1.22,7.07a.82.82,0,0,0,.61.69q1.92.72,3.78,1.56a.81.81,0,0,0,1-.06c2-1.44,4-2.85,5.93-4.27,1.07-.77,1.63-.72,2.57.21l4.73,4.74c.92.91,1,1.49.21,2.57-1.4,2-2.79,4-4.21,6a.84.84,0,0,0-.08,1c.55,1.2,1.07,2.41,1.51,3.65a.94.94,0,0,0,.82.73c2.34.36,4.68.75,7,1.12,1.46.23,1.83.64,1.83,2.1v6.7a1.6,1.6,0,0,1-1.57,1.85c-2.42.42-4.84.86-7.26,1.25a.9.9,0,0,0-.88.77c-.07.35-.21.69-.35,1.14H89.7A4,4,0,0,1,94,68.9q0,11.58,0,23.17C94,93.5,93.51,94,92.06,94H62.33c-1.43,0-1.93-.49-1.93-1.92,0-1.23,0-2.45,0-3.68H52.82c-1.36,0-1.8-.39-2-1.77-.38-2.36-.79-4.71-1.16-7.07a.83.83,0,0,0-.65-.73c-1.27-.48-2.54-1-3.77-1.56a.82.82,0,0,0-1,.09c-2,1.41-4,2.8-6,4.2a1.62,1.62,0,0,1-2.47-.22Q33.37,78.91,31,76.48A1.59,1.59,0,0,1,30.78,74c1.42-2,2.83-4,4.26-5.94a.78.78,0,0,0,.06-.91c-.57-1.26-1.1-2.54-1.59-3.83a.82.82,0,0,0-.68-.63c-2.4-.41-4.8-.85-7.2-1.25A1.84,1.84,0,0,1,24,60.22V51.88a2.32,2.32,0,0,1,1.9-1.11c2.27-.35,4.54-.75,6.81-1.12a.91.91,0,0,0,.83-.7c.46-1.28,1-2.54,1.57-3.78a.77.77,0,0,0,0-.9c-1.41-2-2.8-4-4.2-6a1.64,1.64,0,0,1,.21-2.53L35.82,31c1-1,1.5-1,2.62-.21,1.94,1.38,3.89,2.77,5.83,4.17a.84.84,0,0,0,1,.09,37.3,37.3,0,0,1,3.65-1.5,1,1,0,0,0,.75-.88c.36-2.36.77-4.71,1.13-7.07A1.86,1.86,0,0,1,52,24Zm.07,43.11a11.68,11.68,0,1,1,3.09-20,11.21,11.21,0,0,1,4.31,8.51,11.68,11.68,0,0,1-3.51,9c3.62,0,7.09,0,10.55,0a.78.78,0,0,0,.57-.39,17.79,17.79,0,0,0,.86-2.45,2.1,2.1,0,0,1,2-1.66c2.42-.39,4.84-.84,7.32-1.27,0-1.69,0-3.35,0-5,0-.14-.35-.37-.56-.4-2.28-.4-4.57-.78-6.87-1.12a2.14,2.14,0,0,1-1.84-1.64c-.57-1.64-1.31-3.23-2-4.84-.09-.21-.21-.4-.28-.62-.28-.78.18-1.34.59-1.92l4.15-5.91L75,33.54c-2,1.43-4,2.86-6,4.35a2.06,2.06,0,0,1-2.39.15,43.23,43.23,0,0,0-4.77-2,2.23,2.23,0,0,1-1.7-1.95c-.38-2.42-.83-4.83-1.27-7.32-1.69,0-3.35,0-5,0-.14,0-.36.3-.39.49-.39,2.28-.77,4.57-1.12,6.87A2.09,2.09,0,0,1,50.72,36c-1.73.63-3.42,1.36-5.09,2.11a1.84,1.84,0,0,1-2-.12l-2.06-1.46-4.12-2.95L33.67,37.4c1.36,2,2.77,4,4.22,6A2,2,0,0,1,38,45.75a37.76,37.76,0,0,0-2,4.71,2.35,2.35,0,0,1-2.14,1.84c-2.21.31-4.4.7-6.6,1.09-.19,0-.48.26-.48.4,0,1.66,0,3.32,0,5,2.46.43,4.85.89,7.25,1.27A2.22,2.22,0,0,1,36,61.78a46.08,46.08,0,0,0,2,4.83,2,2,0,0,1-.15,2.33c-1.33,1.82-2.63,3.66-3.94,5.5l-.35.51,3.81,3.79c2-1.38,4-2.78,6-4.23a2.09,2.09,0,0,1,2.4-.14,34.8,34.8,0,0,0,4.65,1.93,2.34,2.34,0,0,1,1.86,2.12c.31,2.23.71,4.45,1.1,6.66,0,.19.3.48.47.49,1.63,0,3.27,0,4.95,0,.18-.89.36-1.73.53-2.57a35.45,35.45,0,0,0,1.06-8.65C60.3,72,60.42,69.52,60.44,67.1Zm2.82,4.5V91.13h27.9V71.6Zm1.79-15.41A8.85,8.85,0,1,0,56.2,65,8.82,8.82,0,0,0,65.05,56.19ZM63.28,68.74H91.14c0-1-.41-1.36-1.63-1.36H64.92a3.94,3.94,0,0,0-.68,0C63.53,67.54,63.24,67.94,63.28,68.74Z"/><path class="cls-4" d="M75.7,72.36l2,2-7.46,7.45-4.76-4.07,1.82-2.12L70.08,78Z"/><path class="cls-4" d="M70.17,88.8l-4.74-4.06,1.82-2.12L70.07,85l5.55-5.56,1.94,2C75.19,83.78,72.71,86.25,70.17,88.8Z"/></g></g></g></svg>