<svg xmlns="http://www.w3.org/2000/svg" xmlns:xlink="http://www.w3.org/1999/xlink" viewBox="0 0 118 140.14"><defs><style>.cls-1{fill:none;}.cls-2{fill:#1a4051;}.cls-3{fill:#3498db;}.cls-4{fill:#00005b;}.cls-5{fill:#99f;}.cls-6{clip-path:url(#clip-path);}.cls-7{fill:#3497da;}.cls-8{fill:#3497d9;}.cls-9{fill:#3396d8;}.cls-10{fill:#3395d7;}.cls-11{fill:#3395d6;}.cls-12{fill:#3394d5;}.cls-13{fill:#3394d4;}.cls-14{fill:#3293d3;}.cls-15{fill:#3292d2;}.cls-16{fill:#3292d1;}.cls-17{fill:#3291d0;}.cls-18{fill:#3290cf;}.cls-19{fill:#3290ce;}.cls-20{fill:#318fcd;}.cls-21{fill:#318ecc;}.cls-22{fill:#318ecb;}.cls-23{fill:#318dca;}.cls-24{fill:#318cc9;}.cls-25{fill:#308cc8;}.cls-26{fill:#308bc7;}.cls-27{fill:#308bc6;}.cls-28{fill:#308ac5;}.cls-29{fill:#3089c4;}.cls-30{fill:#2f89c3;}.cls-31{fill:#2f88c2;}.cls-32{fill:#2f87c1;}.cls-33{fill:#2f87c0;}.cls-34{fill:#2f86bf;}.cls-35{fill:#2e85be;}.cls-36{fill:#2e85bd;}.cls-37{fill:#2e84bc;}.cls-38{fill:#2e83bb;}.cls-39{fill:#2e83ba;}.cls-40{fill:#2e82b9;}.cls-41{fill:#2d82b8;}.cls-42{fill:#2d81b7;}.cls-43{fill:#2d80b6;}.cls-44{fill:#2d80b5;}.cls-45{fill:#2d7fb4;}.cls-46{fill:#2c7eb3;}.cls-47{fill:#2c7eb2;}.cls-48{fill:#2c7db1;}.cls-49{fill:#2c7cb0;}.cls-50{fill:#2c7caf;}.cls-51{fill:#2b7bae;}.cls-52{fill:#2b7aad;}.cls-53{fill:#2b7aac;}.cls-54{fill:#2b79ab;}.cls-55{fill:#2b79aa;}.cls-56{fill:#2b78a9;}.cls-57{fill:#2a77a8;}.cls-58{fill:#2a77a7;}.cls-59{fill:#2a76a6;}.cls-60{fill:#2a75a5;}.cls-61{fill:#2a75a4;}.cls-62{fill:#2974a3;}.cls-63{fill:#2973a2;}.cls-64{fill:#2973a1;}.cls-65{fill:#2972a0;}.cls-66{fill:#29719f;}.cls-67{fill:#28719e;}.cls-68{fill:#28709d;}.cls-69{fill:#28709c;}.cls-70{fill:#286f9b;}.cls-71{fill:#286e9a;}.cls-72{fill:#276e99;}.cls-73{fill:#276d98;}.cls-74{fill:#276c97;}.cls-75{fill:#276c95;}.cls-76{fill:#276b94;}.cls-77{fill:#276a93;}.cls-78{fill:#266a92;}.cls-79{fill:#266991;}.cls-80{fill:#266890;}.cls-81{fill:#26688f;}.cls-82{fill:#26678e;}.cls-83{fill:#25678d;}.cls-84{fill:#25668c;}.cls-85{fill:#25658b;}.cls-86{fill:#25658a;}.cls-87{fill:#256489;}.cls-88{fill:#246388;}.cls-89{fill:#246387;}.cls-90{fill:#246286;}.cls-91{fill:#246185;}.cls-92{fill:#246184;}.cls-93{fill:#236083;}.cls-94{fill:#235f82;}.cls-95{fill:#235f81;}.cls-96{fill:#235e80;}.cls-97{fill:#235e7f;}.cls-98{fill:#235d7e;}.cls-99{fill:#225c7d;}.cls-100{fill:#225c7c;}.cls-101{fill:#225b7b;}.cls-102{fill:#225a7a;}.cls-103{fill:#225a79;}.cls-104{fill:#215978;}.cls-105{fill:#215877;}.cls-106{fill:#215876;}.cls-107{fill:#215775;}.cls-108{fill:#215674;}.cls-109{fill:#205673;}.cls-110{fill:#205572;}.cls-111{fill:#205571;}.cls-112{fill:#205470;}.cls-113{fill:#20536f;}.cls-114{fill:#20536e;}.cls-115{fill:#1f526d;}.cls-116{fill:#1f516c;}.cls-117{fill:#1f516b;}.cls-118{fill:#1f506a;}.cls-119{fill:#1f4f69;}.cls-120{fill:#1e4f68;}.cls-121{fill:#1e4e67;}.cls-122{fill:#1e4d66;}.cls-123{fill:#1e4d65;}.cls-124{fill:#1e4c64;}.cls-125{fill:#1d4c63;}.cls-126{fill:#1d4b62;}.cls-127{fill:#1d4a61;}.cls-128{fill:#1d4a60;}.cls-129{fill:#1d495f;}.cls-130{fill:#1c485e;}.cls-131{fill:#1c485d;}.cls-132{fill:#1c475c;}.cls-133{fill:#1c465b;}.cls-134{fill:#1c465a;}.cls-135{fill:#1c4559;}.cls-136{fill:#1b4458;}.cls-137{fill:#1b4457;}.cls-138{fill:#1b4356;}.cls-139{fill:#1b4355;}.cls-140{fill:#1b4254;}.cls-141{fill:#1a4153;}.cls-142{fill:#1a4152;}</style><clipPath id="clip-path" transform="translate(0 0)"><rect class="cls-1" width="5" height="118"/></clipPath></defs><g id="Layer_2" data-name="Layer 2"><g id="Layer_1-2" data-name="Layer 1"><path class="cls-2" d="M118,118H0V0H89.77A28.23,28.23,0,0,1,118,28.23V118Z" transform="translate(0 0)"/><path class="cls-3" d="M37.29,131.74a2.81,2.81,0,0,1,0,5.61H35.44v2.79H34.22v-8.4Zm0,4.41a1.59,1.59,0,0,0,0-3.18H35.44v3.18Z" transform="translate(0 0)"/><path class="cls-3" d="M42.22,135.88h1.42a1.46,1.46,0,1,0,0-2.91H41.78v7.17h-1.2v-8.4h3.06a2.6,2.6,0,0,1,2.73,2.68A2.53,2.53,0,0,1,44.2,137l2.65,3.15H45.28l-3.06-3.68Z" transform="translate(0 0)"/><path class="cls-3" d="M48.25,138.93h3.9v1.21H47v-8.38h5.11V133H48.25v2.36h3.8v1.22h-3.8Z" transform="translate(0 0)"/><path class="cls-3" d="M54.17,140.14H53v-8.4h1l2.77,4.08,2.77-4.08h1v8.4h-1.2v-5.91l-2.2,3.26h-.68l-2.2-3.26Z" transform="translate(0 0)"/><path class="cls-3" d="M65.86,133H64.3v6h1.56v1.21H61.53v-1.21h1.56v-6H61.53v-1.2h4.33Z" transform="translate(0 0)"/><path class="cls-3" d="M67.58,138.93h3.9v1.21H66.36v-8.38h5.1V133H67.58v2.36h3.8v1.22h-3.8Z" transform="translate(0 0)"/><path class="cls-3" d="M73.67,135.88h1.42a1.46,1.46,0,1,0,0-2.91H73.23v7.17H72v-8.4h3.06a2.6,2.6,0,0,1,2.73,2.68A2.53,2.53,0,0,1,75.65,137l2.65,3.15H76.73l-3.06-3.68Z" transform="translate(0 0)"/><path class="cls-3" d="M79.7,138.93h3.9v1.21H78.48v-8.38h5.1V133H79.7v2.36h3.8v1.22H79.7Z" transform="translate(0 0)"/><path class="cls-4" d="M93.87,36V82c-.07,0-.06.07-.07.12s0,.34-.07.5a12,12,0,0,1-1.48,4.16,12.25,12.25,0,0,1-3,3.49A12,12,0,0,1,85,92.52a11.64,11.64,0,0,1-2.1.41s-.1,0-.12.07H35.3c0-.06-.07-.06-.12-.07l-.54-.06a12.36,12.36,0,0,1-9-6.39,11.93,11.93,0,0,1-1.41-4.91c0-.06,0-.12-.07-.15V36.58c.08,0,.06-.1.07-.16a11.27,11.27,0,0,1,.29-1.92,12.25,12.25,0,0,1,4.24-6.74A12.34,12.34,0,0,1,31.57,26a11.5,11.5,0,0,1,2-.66,10.91,10.91,0,0,1,1.8-.3s.1,0,.12-.07H82.56c0,.06.08.06.13.06a5.93,5.93,0,0,1,.59.07,12.4,12.4,0,0,1,9.94,8.18,12.49,12.49,0,0,1,.58,2.56C93.81,35.92,93.81,36,93.87,36ZM40.72,57.74V72.61c0,.38.08.47.47.47h5.45a.35.35,0,0,0,.38-.39V63.54c0-.22,0-.2.21-.2.41,0,.81,0,1.22,0a26.94,26.94,0,0,0,3.81-.09,16.68,16.68,0,0,0,2.89-.52,10.41,10.41,0,0,0,3.57-1.66,9.22,9.22,0,0,0,3.4-4.57,11.27,11.27,0,0,0,.53-2.87,11.69,11.69,0,0,0-.31-3.73,9.24,9.24,0,0,0-3.65-5.36,12,12,0,0,0-4.39-1.86,19.4,19.4,0,0,0-3.95-.41c-1.66,0-3.32,0-5,.07-1.44,0-2.88.1-4.32.1h0a.27.27,0,0,0-.29.28,1.76,1.76,0,0,0,0,.23Zm32.11-4.88v-.08a10.4,10.4,0,0,0-.18-1.67,4.65,4.65,0,0,0-.2-.88.76.76,0,0,0-.23-.33.74.74,0,0,0-.48-.14h-5a.28.28,0,0,0-.28.24c0,.06,0,.12,0,.17,0,.35.07.7.08,1,0,1.46.11,2.91.11,4.36,0,5.62,0,11.23,0,16.85a1.47,1.47,0,0,0,0,.21.4.4,0,0,0,.44.44H73a.3.3,0,0,0,.27-.26,1.7,1.7,0,0,0,0-.22V58a.38.38,0,0,1,.12-.29,4.37,4.37,0,0,1,1.43-1,12.37,12.37,0,0,1,4.48-1c.36,0,.73,0,1.09,0s.41-.09.41-.42V49.65a.35.35,0,0,0-.39-.38c-.25,0-.51,0-.76,0a9,9,0,0,0-2.45.54A10.8,10.8,0,0,0,73,52.74.29.29,0,0,1,72.83,52.86Z" transform="translate(0 0)"/><path class="cls-5" d="M40.72,57.74V43a1.76,1.76,0,0,1,0-.23.27.27,0,0,1,.29-.28h0c1.44,0,2.88-.07,4.32-.1,1.67,0,3.33-.09,5-.07a19.4,19.4,0,0,1,3.95.41,12,12,0,0,1,4.39,1.86,9.24,9.24,0,0,1,3.65,5.36,11.69,11.69,0,0,1,.31,3.73,11.27,11.27,0,0,1-.53,2.87,9.22,9.22,0,0,1-3.4,4.57,10.41,10.41,0,0,1-3.57,1.66,16.68,16.68,0,0,1-2.89.52,26.94,26.94,0,0,1-3.81.09c-.41,0-.81,0-1.22,0-.22,0-.21,0-.21.2v9.14a.35.35,0,0,1-.38.39H41.19c-.39,0-.47-.09-.47-.47ZM47.05,53v4.64a.48.48,0,0,1,0,.12c0,.09,0,.12.12.13l.57,0c.72,0,1.44,0,2.16,0a11.48,11.48,0,0,0,3-.45,5.23,5.23,0,0,0,2-1.07,3.66,3.66,0,0,0,1.2-1.74,5.42,5.42,0,0,0,.23-1.2,5.78,5.78,0,0,0-.09-1.76,4.14,4.14,0,0,0-2.62-3.09,8.6,8.6,0,0,0-3-.57c-1,0-2.07,0-3.11,0l-.34,0c-.08,0-.12,0-.11.12a.57.57,0,0,1,0,.13Z" transform="translate(0 0)"/><path class="cls-5" d="M72.83,52.86a.29.29,0,0,0,.14-.12,10.8,10.8,0,0,1,4.19-2.9,9,9,0,0,1,2.45-.54c.25,0,.51,0,.76,0a.35.35,0,0,1,.39.38v5.62c0,.33-.08.41-.41.42s-.73,0-1.09,0a12.37,12.37,0,0,0-4.48,1,4.37,4.37,0,0,0-1.43,1,.38.38,0,0,0-.12.29V72.59a1.7,1.7,0,0,1,0,.22.3.3,0,0,1-.27.26H67.11a.4.4,0,0,1-.44-.44,1.47,1.47,0,0,1,0-.21c0-5.62,0-11.23,0-16.85,0-1.45-.07-2.9-.11-4.36,0-.35,0-.7-.08-1,0-.05,0-.11,0-.17a.28.28,0,0,1,.28-.24h5a.74.74,0,0,1,.48.14.76.76,0,0,1,.23.33,4.65,4.65,0,0,1,.2.88,10.4,10.4,0,0,1,.18,1.67Z" transform="translate(0 0)"/><path class="cls-4" d="M47.05,53V48.32a.57.57,0,0,0,0-.13c0-.09,0-.12.11-.12l.34,0c1,0,2.07,0,3.11,0a8.6,8.6,0,0,1,3,.57,4.14,4.14,0,0,1,2.62,3.09,5.78,5.78,0,0,1,.09,1.76,5.42,5.42,0,0,1-.23,1.2,3.66,3.66,0,0,1-1.2,1.74,5.23,5.23,0,0,1-2,1.07,11.48,11.48,0,0,1-3,.45c-.72,0-1.44,0-2.16,0l-.57,0c-.09,0-.13,0-.12-.13a.48.48,0,0,0,0-.12Z" transform="translate(0 0)"/><g class="cls-6"><path class="cls-3" d="M0,118H0Z" transform="translate(0 0)"/><rect class="cls-3" y="117.3" width="5" height="0.7"/><rect class="cls-7" y="116.59" width="5" height="0.7"/><rect class="cls-8" y="115.89" width="5" height="0.7"/><rect class="cls-9" y="115.18" width="5" height="0.7"/><rect class="cls-10" y="114.48" width="5" height="0.7"/><rect class="cls-11" y="113.77" width="5" height="0.7"/><rect class="cls-12" y="113.07" width="5" height="0.7"/><rect class="cls-13" y="112.36" width="5" height="0.7"/><rect class="cls-14" y="111.66" width="5" height="0.7"/><rect class="cls-15" y="110.95" width="5" height="0.7"/><rect class="cls-16" y="110.25" width="5" height="0.7"/><rect class="cls-17" y="109.54" width="5" height="0.7"/><rect class="cls-18" y="108.84" width="5" height="0.7"/><rect class="cls-19" y="108.14" width="5" height="0.7"/><rect class="cls-20" y="107.43" width="5" height="0.7"/><rect class="cls-21" y="106.73" width="5" height="0.7"/><rect class="cls-22" y="106.02" width="5" height="0.7"/><rect class="cls-23" y="105.32" width="5" height="0.7"/><rect class="cls-24" y="104.61" width="5" height="0.7"/><rect class="cls-25" y="103.91" width="5" height="0.7"/><rect class="cls-26" y="103.2" width="5" height="0.7"/><rect class="cls-27" y="102.5" width="5" height="0.7"/><rect class="cls-28" y="101.79" width="5" height="0.7"/><rect class="cls-29" y="101.09" width="5" height="0.7"/><rect class="cls-30" y="100.39" width="5" height="0.7"/><rect class="cls-31" y="99.68" width="5" height="0.7"/><rect class="cls-32" y="98.98" width="5" height="0.7"/><rect class="cls-33" y="98.27" width="5" height="0.7"/><rect class="cls-34" y="97.57" width="5" height="0.7"/><rect class="cls-35" y="96.86" width="5" height="0.7"/><rect class="cls-36" y="96.16" width="5" height="0.7"/><rect class="cls-37" y="95.45" width="5" height="0.7"/><rect class="cls-38" y="94.75" width="5" height="0.7"/><rect class="cls-39" y="94.04" width="5" height="0.7"/><rect class="cls-40" y="93.34" width="5" height="0.7"/><rect class="cls-41" y="92.63" width="5" height="0.7"/><rect class="cls-42" y="91.93" width="5" height="0.7"/><rect class="cls-43" y="91.23" width="5" height="0.7"/><rect class="cls-44" y="90.52" width="5" height="0.7"/><rect class="cls-45" y="89.82" width="5" height="0.7"/><rect class="cls-46" y="89.11" width="5" height="0.7"/><rect class="cls-47" y="88.41" width="5" height="0.7"/><rect class="cls-48" y="87.7" width="5" height="0.7"/><rect class="cls-49" y="87" width="5" height="0.7"/><rect class="cls-50" y="86.29" width="5" height="0.7"/><rect class="cls-51" y="85.59" width="5" height="0.7"/><rect class="cls-52" y="84.88" width="5" height="0.7"/><rect class="cls-53" y="84.18" width="5" height="0.7"/><rect class="cls-54" y="83.47" width="5" height="0.7"/><rect class="cls-55" y="82.77" width="5" height="0.7"/><rect class="cls-56" y="82.07" width="5" height="0.7"/><rect class="cls-57" y="81.36" width="5" height="0.7"/><rect class="cls-58" y="80.66" width="5" height="0.7"/><rect class="cls-59" y="79.95" width="5" height="0.7"/><rect class="cls-60" y="79.25" width="5" height="0.7"/><rect class="cls-61" y="78.54" width="5" height="0.7"/><rect class="cls-62" y="77.84" width="5" height="0.7"/><rect class="cls-63" y="77.13" width="5" height="0.7"/><rect class="cls-64" y="76.43" width="5" height="0.7"/><rect class="cls-65" y="75.72" width="5" height="0.7"/><rect class="cls-66" y="75.02" width="5" height="0.7"/><rect class="cls-67" y="74.32" width="5" height="0.7"/><rect class="cls-68" y="73.61" width="5" height="0.7"/><rect class="cls-69" y="72.91" width="5" height="0.7"/><rect class="cls-70" y="72.2" width="5" height="0.7"/><rect class="cls-71" y="71.5" width="5" height="0.7"/><rect class="cls-72" y="70.79" width="5" height="0.7"/><rect class="cls-73" y="70.09" width="5" height="0.7"/><rect class="cls-74" y="69.38" width="5" height="0.7"/><rect class="cls-75" y="68.68" width="5" height="0.7"/><rect class="cls-76" y="67.97" width="5" height="0.7"/><rect class="cls-77" y="67.27" width="5" height="0.7"/><rect class="cls-78" y="66.56" width="5" height="0.7"/><rect class="cls-79" y="65.86" width="5" height="0.7"/><rect class="cls-80" y="65.16" width="5" height="0.7"/><rect class="cls-81" y="64.45" width="5" height="0.7"/><rect class="cls-82" y="63.75" width="5" height="0.7"/><rect class="cls-83" y="63.04" width="5" height="0.7"/><rect class="cls-84" y="62.34" width="5" height="0.7"/><rect class="cls-85" y="61.63" width="5" height="0.7"/><rect class="cls-86" y="60.93" width="5" height="0.7"/><rect class="cls-87" y="60.22" width="5" height="0.7"/><rect class="cls-88" y="59.52" width="5" height="0.7"/><rect class="cls-89" y="58.81" width="5" height="0.7"/><rect class="cls-90" y="58.11" width="5" height="0.7"/><rect class="cls-91" y="57.4" width="5" height="0.7"/><rect class="cls-92" y="56.7" width="5" height="0.7"/><rect class="cls-93" y="56" width="5" height="0.7"/><rect class="cls-94" y="55.29" width="5" height="0.7"/><rect class="cls-95" y="54.59" width="5" height="0.7"/><rect class="cls-96" y="53.88" width="5" height="0.7"/><rect class="cls-97" y="53.18" width="5" height="0.7"/><rect class="cls-98" y="52.47" width="5" height="0.7"/><rect class="cls-99" y="51.77" width="5" height="0.7"/><rect class="cls-100" y="51.06" width="5" height="0.7"/><rect class="cls-101" y="50.36" width="5" height="0.7"/><rect class="cls-102" y="49.65" width="5" height="0.7"/><rect class="cls-103" y="48.95" width="5" height="0.7"/><rect class="cls-104" y="48.25" width="5" height="0.7"/><rect class="cls-105" y="47.54" width="5" height="0.7"/><rect class="cls-106" y="46.84" width="5" height="0.7"/><rect class="cls-107" y="46.13" width="5" height="0.7"/><rect class="cls-108" y="45.43" width="5" height="0.7"/><rect class="cls-109" y="44.72" width="5" height="0.7"/><rect class="cls-110" y="44.02" width="5" height="0.7"/><rect class="cls-111" y="43.31" width="5" height="0.7"/><rect class="cls-112" y="42.61" width="5" height="0.7"/><rect class="cls-113" y="41.9" width="5" height="0.7"/><rect class="cls-114" y="41.2" width="5" height="0.7"/><rect class="cls-115" y="40.49" width="5" height="0.7"/><rect class="cls-116" y="39.79" width="5" height="0.7"/><rect class="cls-117" y="39.09" width="5" height="0.7"/><rect class="cls-118" y="38.38" width="5" height="0.7"/><rect class="cls-119" y="37.68" width="5" height="0.7"/><rect class="cls-120" y="36.97" width="5" height="0.7"/><rect class="cls-121" y="36.27" width="5" height="0.7"/><rect class="cls-122" y="35.56" width="5" height="0.7"/><rect class="cls-123" y="34.86" width="5" height="0.7"/><rect class="cls-124" y="34.15" width="5" height="0.7"/><rect class="cls-125" y="33.45" width="5" height="0.7"/><rect class="cls-126" y="32.74" width="5" height="0.7"/><rect class="cls-127" y="32.04" width="5" height="0.7"/><rect class="cls-128" y="31.33" width="5" height="0.7"/><rect class="cls-129" y="30.63" width="5" height="0.7"/><rect class="cls-130" y="29.93" width="5" height="0.7"/><rect class="cls-131" y="29.22" width="5" height="0.7"/><rect class="cls-132" y="28.52" width="5" height="0.7"/><rect class="cls-133" y="27.81" width="5" height="0.7"/><rect class="cls-134" y="27.11" width="5" height="0.7"/><rect class="cls-135" y="26.4" width="5" height="0.7"/><rect class="cls-136" y="25.7" width="5" height="0.7"/><rect class="cls-137" y="24.99" width="5" height="0.7"/><rect class="cls-138" y="24.29" width="5" height="0.7"/><rect class="cls-139" y="23.58" width="5" height="0.7"/><rect class="cls-140" y="22.88" width="5" height="0.7"/><rect class="cls-141" y="22.18" width="5" height="0.7"/><rect class="cls-142" y="21.47" width="5" height="0.7"/><rect class="cls-2" y="20.77" width="5" height="0.7"/><rect class="cls-2" width="5" height="20.77"/></g></g></g></svg>