<svg xmlns="http://www.w3.org/2000/svg" xmlns:xlink="http://www.w3.org/1999/xlink" viewBox="0 0 118 140.25"><defs><style>.cls-1{fill:none;}.cls-2{fill:#1a4051;}.cls-3{fill:#3498db;}.cls-4{clip-path:url(#clip-path);}.cls-5{fill:#3497da;}.cls-6{fill:#3497d9;}.cls-7{fill:#3396d8;}.cls-8{fill:#3395d7;}.cls-9{fill:#3395d6;}.cls-10{fill:#3394d5;}.cls-11{fill:#3394d4;}.cls-12{fill:#3293d3;}.cls-13{fill:#3292d2;}.cls-14{fill:#3292d1;}.cls-15{fill:#3291d0;}.cls-16{fill:#3290cf;}.cls-17{fill:#3290ce;}.cls-18{fill:#318fcd;}.cls-19{fill:#318ecc;}.cls-20{fill:#318ecb;}.cls-21{fill:#318dca;}.cls-22{fill:#318cc9;}.cls-23{fill:#308cc8;}.cls-24{fill:#308bc7;}.cls-25{fill:#308bc6;}.cls-26{fill:#308ac5;}.cls-27{fill:#3089c4;}.cls-28{fill:#2f89c3;}.cls-29{fill:#2f88c2;}.cls-30{fill:#2f87c1;}.cls-31{fill:#2f87c0;}.cls-32{fill:#2f86bf;}.cls-33{fill:#2e85be;}.cls-34{fill:#2e85bd;}.cls-35{fill:#2e84bc;}.cls-36{fill:#2e83bb;}.cls-37{fill:#2e83ba;}.cls-38{fill:#2e82b9;}.cls-39{fill:#2d82b8;}.cls-40{fill:#2d81b7;}.cls-41{fill:#2d80b6;}.cls-42{fill:#2d80b5;}.cls-43{fill:#2d7fb4;}.cls-44{fill:#2c7eb3;}.cls-45{fill:#2c7eb2;}.cls-46{fill:#2c7db1;}.cls-47{fill:#2c7cb0;}.cls-48{fill:#2c7caf;}.cls-49{fill:#2b7bae;}.cls-50{fill:#2b7aad;}.cls-51{fill:#2b7aac;}.cls-52{fill:#2b79ab;}.cls-53{fill:#2b79aa;}.cls-54{fill:#2b78a9;}.cls-55{fill:#2a77a8;}.cls-56{fill:#2a77a7;}.cls-57{fill:#2a76a6;}.cls-58{fill:#2a75a5;}.cls-59{fill:#2a75a4;}.cls-60{fill:#2974a3;}.cls-61{fill:#2973a2;}.cls-62{fill:#2973a1;}.cls-63{fill:#2972a0;}.cls-64{fill:#29719f;}.cls-65{fill:#28719e;}.cls-66{fill:#28709d;}.cls-67{fill:#28709c;}.cls-68{fill:#286f9b;}.cls-69{fill:#286e9a;}.cls-70{fill:#276e99;}.cls-71{fill:#276d98;}.cls-72{fill:#276c97;}.cls-73{fill:#276c95;}.cls-74{fill:#276b94;}.cls-75{fill:#276a93;}.cls-76{fill:#266a92;}.cls-77{fill:#266991;}.cls-78{fill:#266890;}.cls-79{fill:#26688f;}.cls-80{fill:#26678e;}.cls-81{fill:#25678d;}.cls-82{fill:#25668c;}.cls-83{fill:#25658b;}.cls-84{fill:#25658a;}.cls-85{fill:#256489;}.cls-86{fill:#246388;}.cls-87{fill:#246387;}.cls-88{fill:#246286;}.cls-89{fill:#246185;}.cls-90{fill:#246184;}.cls-91{fill:#236083;}.cls-92{fill:#235f82;}.cls-93{fill:#235f81;}.cls-94{fill:#235e80;}.cls-95{fill:#235e7f;}.cls-96{fill:#235d7e;}.cls-97{fill:#225c7d;}.cls-98{fill:#225c7c;}.cls-99{fill:#225b7b;}.cls-100{fill:#225a7a;}.cls-101{fill:#225a79;}.cls-102{fill:#215978;}.cls-103{fill:#215877;}.cls-104{fill:#215876;}.cls-105{fill:#215775;}.cls-106{fill:#215674;}.cls-107{fill:#205673;}.cls-108{fill:#205572;}.cls-109{fill:#205571;}.cls-110{fill:#205470;}.cls-111{fill:#20536f;}.cls-112{fill:#20536e;}.cls-113{fill:#1f526d;}.cls-114{fill:#1f516c;}.cls-115{fill:#1f516b;}.cls-116{fill:#1f506a;}.cls-117{fill:#1f4f69;}.cls-118{fill:#1e4f68;}.cls-119{fill:#1e4e67;}.cls-120{fill:#1e4d66;}.cls-121{fill:#1e4d65;}.cls-122{fill:#1e4c64;}.cls-123{fill:#1d4c63;}.cls-124{fill:#1d4b62;}.cls-125{fill:#1d4a61;}.cls-126{fill:#1d4a60;}.cls-127{fill:#1d495f;}.cls-128{fill:#1c485e;}.cls-129{fill:#1c485d;}.cls-130{fill:#1c475c;}.cls-131{fill:#1c465b;}.cls-132{fill:#1c465a;}.cls-133{fill:#1c4559;}.cls-134{fill:#1b4458;}.cls-135{fill:#1b4457;}.cls-136{fill:#1b4356;}.cls-137{fill:#1b4355;}.cls-138{fill:#1b4254;}.cls-139{fill:#1a4153;}.cls-140{fill:#1a4152;}</style><clipPath id="clip-path" transform="translate(0 0)"><rect class="cls-1" width="5" height="118"/></clipPath></defs><g id="Layer_2" data-name="Layer 2"><g id="Layer_1-2" data-name="Layer 1"><path class="cls-2" d="M118,118H0V0H89.77A28.23,28.23,0,0,1,118,28.23V118Z" transform="translate(0 0)"/><path class="cls-3" d="M30.71,26l5.15,58.31L59,92l23.14-7.69L87.29,26ZM76.84,37.79l-.71,7L59.15,52H75.53l-1.89,21.6L59.18,77.86l-14.56-4.3-.94-10.89h7.2l.47,5.64,7.75,2L67.16,68l.55-9.07-24.5-.08h0L42.65,52l16.51-6.88,1-.4H42l-.85-7Z" transform="translate(0 0)"/><path class="cls-3" d="M46.21,133a4.06,4.06,0,0,1,2.91-1.25A3.93,3.93,0,0,1,53,134.8h-1.2a2.74,2.74,0,0,0-2.71-1.89,2.87,2.87,0,0,0-2.07.9,3.1,3.1,0,0,0,0,4.29A2.89,2.89,0,0,0,51.9,137h1.19A4,4,0,0,1,46.21,139a4.34,4.34,0,0,1,0-6Z" transform="translate(0 0)"/><path class="cls-3" d="M58.27,133.92a1.61,1.61,0,0,0-1.71-1.07,2,2,0,0,0-1.53.63,1.18,1.18,0,0,0-.2.78c.06.87,1,1,1.91,1.06,1.15.14,2.58.44,2.9,1.79a3.55,3.55,0,0,1,.06.55c0,1.62-1.61,2.55-3.12,2.55-1.29,0-2.87-.77-3-2.26v-.23l1.22,0v.14c.09.78,1,1.18,1.81,1.18s1.89-.5,1.89-1.36a1.67,1.67,0,0,0,0-.29c-.14-.64-1-.75-1.85-.83-1.3-.13-2.84-.42-3-2.17h0a2.24,2.24,0,0,1,.45-1.59,3.24,3.24,0,0,1,2.55-1.12,2.67,2.67,0,0,1,2.85,2.21Z" transform="translate(0 0)"/><path class="cls-3" d="M64.92,133.92a1.61,1.61,0,0,0-1.72-1.07,2,2,0,0,0-1.52.63,1.07,1.07,0,0,0-.2.78c.06.87,1,1,1.9,1.06,1.16.14,2.58.44,2.91,1.79a3.55,3.55,0,0,1,.06.55c0,1.62-1.61,2.55-3.12,2.55-1.3,0-2.87-.77-3-2.26l0-.23,1.23,0v.14c.08.78,1,1.18,1.81,1.18s1.88-.5,1.88-1.36a1.59,1.59,0,0,0,0-.29c-.15-.64-1-.75-1.85-.83-1.31-.13-2.84-.42-3-2.17h0a2.24,2.24,0,0,1,.45-1.59,3.22,3.22,0,0,1,2.54-1.12,2.67,2.67,0,0,1,2.86,2.21Z" transform="translate(0 0)"/><path class="cls-3" d="M68.63,135.36h1.26A1.15,1.15,0,0,0,71,134.11c0-.84-.8-1.23-1.6-1.23a1.44,1.44,0,0,0-1.44,1l-1.09-.26a2.74,2.74,0,0,1,5.33.48,2,2,0,0,1-.77,1.75,2.09,2.09,0,0,1,1.08,1.95c0,1.22-1,2.44-3,2.44a2.62,2.62,0,0,1-2.85-2.2l1.13-.2a1.57,1.57,0,0,0,1.72,1.27c1.33,0,2-.73,1.89-1.43a1.37,1.37,0,0,0-1.52-1.2H68.63Z" transform="translate(0 0)"/><g class="cls-4"><path class="cls-3" d="M0,118H0Z" transform="translate(0 0)"/><rect class="cls-3" y="117.3" width="5" height="0.7"/><rect class="cls-5" y="116.59" width="5" height="0.7"/><rect class="cls-6" y="115.89" width="5" height="0.7"/><rect class="cls-7" y="115.18" width="5" height="0.7"/><rect class="cls-8" y="114.48" width="5" height="0.7"/><rect class="cls-9" y="113.77" width="5" height="0.7"/><rect class="cls-10" y="113.07" width="5" height="0.7"/><rect class="cls-11" y="112.36" width="5" height="0.7"/><rect class="cls-12" y="111.66" width="5" height="0.7"/><rect class="cls-13" y="110.95" width="5" height="0.7"/><rect class="cls-14" y="110.25" width="5" height="0.7"/><rect class="cls-15" y="109.54" width="5" height="0.7"/><rect class="cls-16" y="108.84" width="5" height="0.7"/><rect class="cls-17" y="108.14" width="5" height="0.7"/><rect class="cls-18" y="107.43" width="5" height="0.7"/><rect class="cls-19" y="106.73" width="5" height="0.7"/><rect class="cls-20" y="106.02" width="5" height="0.7"/><rect class="cls-21" y="105.32" width="5" height="0.7"/><rect class="cls-22" y="104.61" width="5" height="0.7"/><rect class="cls-23" y="103.91" width="5" height="0.7"/><rect class="cls-24" y="103.2" width="5" height="0.7"/><rect class="cls-25" y="102.5" width="5" height="0.7"/><rect class="cls-26" y="101.79" width="5" height="0.7"/><rect class="cls-27" y="101.09" width="5" height="0.7"/><rect class="cls-28" y="100.39" width="5" height="0.7"/><rect class="cls-29" y="99.68" width="5" height="0.7"/><rect class="cls-30" y="98.98" width="5" height="0.7"/><rect class="cls-31" y="98.27" width="5" height="0.7"/><rect class="cls-32" y="97.57" width="5" height="0.7"/><rect class="cls-33" y="96.86" width="5" height="0.7"/><rect class="cls-34" y="96.16" width="5" height="0.7"/><rect class="cls-35" y="95.45" width="5" height="0.7"/><rect class="cls-36" y="94.75" width="5" height="0.7"/><rect class="cls-37" y="94.04" width="5" height="0.7"/><rect class="cls-38" y="93.34" width="5" height="0.7"/><rect class="cls-39" y="92.63" width="5" height="0.7"/><rect class="cls-40" y="91.93" width="5" height="0.7"/><rect class="cls-41" y="91.23" width="5" height="0.7"/><rect class="cls-42" y="90.52" width="5" height="0.7"/><rect class="cls-43" y="89.82" width="5" height="0.7"/><rect class="cls-44" y="89.11" width="5" height="0.7"/><rect class="cls-45" y="88.41" width="5" height="0.7"/><rect class="cls-46" y="87.7" width="5" height="0.7"/><rect class="cls-47" y="87" width="5" height="0.7"/><rect class="cls-48" y="86.29" width="5" height="0.7"/><rect class="cls-49" y="85.59" width="5" height="0.7"/><rect class="cls-50" y="84.88" width="5" height="0.7"/><rect class="cls-51" y="84.18" width="5" height="0.7"/><rect class="cls-52" y="83.47" width="5" height="0.7"/><rect class="cls-53" y="82.77" width="5" height="0.7"/><rect class="cls-54" y="82.07" width="5" height="0.7"/><rect class="cls-55" y="81.36" width="5" height="0.7"/><rect class="cls-56" y="80.66" width="5" height="0.7"/><rect class="cls-57" y="79.95" width="5" height="0.7"/><rect class="cls-58" y="79.25" width="5" height="0.7"/><rect class="cls-59" y="78.54" width="5" height="0.7"/><rect class="cls-60" y="77.84" width="5" height="0.7"/><rect class="cls-61" y="77.13" width="5" height="0.7"/><rect class="cls-62" y="76.43" width="5" height="0.7"/><rect class="cls-63" y="75.72" width="5" height="0.7"/><rect class="cls-64" y="75.02" width="5" height="0.7"/><rect class="cls-65" y="74.32" width="5" height="0.7"/><rect class="cls-66" y="73.61" width="5" height="0.7"/><rect class="cls-67" y="72.91" width="5" height="0.7"/><rect class="cls-68" y="72.2" width="5" height="0.7"/><rect class="cls-69" y="71.5" width="5" height="0.7"/><rect class="cls-70" y="70.79" width="5" height="0.7"/><rect class="cls-71" y="70.09" width="5" height="0.7"/><rect class="cls-72" y="69.38" width="5" height="0.7"/><rect class="cls-73" y="68.68" width="5" height="0.7"/><rect class="cls-74" y="67.97" width="5" height="0.7"/><rect class="cls-75" y="67.27" width="5" height="0.7"/><rect class="cls-76" y="66.56" width="5" height="0.7"/><rect class="cls-77" y="65.86" width="5" height="0.7"/><rect class="cls-78" y="65.16" width="5" height="0.7"/><rect class="cls-79" y="64.45" width="5" height="0.7"/><rect class="cls-80" y="63.75" width="5" height="0.7"/><rect class="cls-81" y="63.04" width="5" height="0.7"/><rect class="cls-82" y="62.34" width="5" height="0.7"/><rect class="cls-83" y="61.63" width="5" height="0.7"/><rect class="cls-84" y="60.93" width="5" height="0.7"/><rect class="cls-85" y="60.22" width="5" height="0.7"/><rect class="cls-86" y="59.52" width="5" height="0.7"/><rect class="cls-87" y="58.81" width="5" height="0.7"/><rect class="cls-88" y="58.11" width="5" height="0.7"/><rect class="cls-89" y="57.4" width="5" height="0.7"/><rect class="cls-90" y="56.7" width="5" height="0.7"/><rect class="cls-91" y="56" width="5" height="0.7"/><rect class="cls-92" y="55.29" width="5" height="0.7"/><rect class="cls-93" y="54.59" width="5" height="0.7"/><rect class="cls-94" y="53.88" width="5" height="0.7"/><rect class="cls-95" y="53.18" width="5" height="0.7"/><rect class="cls-96" y="52.47" width="5" height="0.7"/><rect class="cls-97" y="51.77" width="5" height="0.7"/><rect class="cls-98" y="51.06" width="5" height="0.7"/><rect class="cls-99" y="50.36" width="5" height="0.7"/><rect class="cls-100" y="49.65" width="5" height="0.7"/><rect class="cls-101" y="48.95" width="5" height="0.7"/><rect class="cls-102" y="48.25" width="5" height="0.7"/><rect class="cls-103" y="47.54" width="5" height="0.7"/><rect class="cls-104" y="46.84" width="5" height="0.7"/><rect class="cls-105" y="46.13" width="5" height="0.7"/><rect class="cls-106" y="45.43" width="5" height="0.7"/><rect class="cls-107" y="44.72" width="5" height="0.7"/><rect class="cls-108" y="44.02" width="5" height="0.7"/><rect class="cls-109" y="43.31" width="5" height="0.7"/><rect class="cls-110" y="42.61" width="5" height="0.7"/><rect class="cls-111" y="41.9" width="5" height="0.7"/><rect class="cls-112" y="41.2" width="5" height="0.7"/><rect class="cls-113" y="40.49" width="5" height="0.7"/><rect class="cls-114" y="39.79" width="5" height="0.7"/><rect class="cls-115" y="39.09" width="5" height="0.7"/><rect class="cls-116" y="38.38" width="5" height="0.7"/><rect class="cls-117" y="37.68" width="5" height="0.7"/><rect class="cls-118" y="36.97" width="5" height="0.7"/><rect class="cls-119" y="36.27" width="5" height="0.7"/><rect class="cls-120" y="35.56" width="5" height="0.7"/><rect class="cls-121" y="34.86" width="5" height="0.7"/><rect class="cls-122" y="34.15" width="5" height="0.7"/><rect class="cls-123" y="33.45" width="5" height="0.7"/><rect class="cls-124" y="32.74" width="5" height="0.7"/><rect class="cls-125" y="32.04" width="5" height="0.7"/><rect class="cls-126" y="31.33" width="5" height="0.7"/><rect class="cls-127" y="30.63" width="5" height="0.7"/><rect class="cls-128" y="29.93" width="5" height="0.7"/><rect class="cls-129" y="29.22" width="5" height="0.7"/><rect class="cls-130" y="28.52" width="5" height="0.7"/><rect class="cls-131" y="27.81" width="5" height="0.7"/><rect class="cls-132" y="27.11" width="5" height="0.7"/><rect class="cls-133" y="26.4" width="5" height="0.7"/><rect class="cls-134" y="25.7" width="5" height="0.7"/><rect class="cls-135" y="24.99" width="5" height="0.7"/><rect class="cls-136" y="24.29" width="5" height="0.7"/><rect class="cls-137" y="23.58" width="5" height="0.7"/><rect class="cls-138" y="22.88" width="5" height="0.7"/><rect class="cls-139" y="22.18" width="5" height="0.7"/><rect class="cls-140" y="21.47" width="5" height="0.7"/><rect class="cls-2" y="20.77" width="5" height="0.7"/><rect class="cls-2" width="5" height="20.77"/></g></g></g></svg>